
<!-- Generator: visioncortex VTracer 0.6.4 -->
<svg version="1.1" xmlns="http://www.w3.org/2000/svg" viewBox="0 0 512 512" preserveAspectRatio="xMidYMid meet">
<path d="M0 0 C1.018 0.002 2.036 0.004 3.086 0.007 C17.707 0.056 32.006 0.362 46.375 3.312 C47.894 3.611 47.894 3.611 49.443 3.915 C95.285 13.082 139.738 34.105 173.645 66.699 C175.955 68.91 178.307 71.001 180.75 73.062 C183.993 75.872 186.785 78.908 189.551 82.184 C190.784 83.623 192.054 85.032 193.355 86.41 C223.714 118.649 242.966 161.606 252.125 204.5 C252.423 205.887 252.423 205.887 252.728 207.302 C256.019 223.509 256.75 239.443 256.688 255.938 C256.685 256.956 256.683 257.974 256.681 259.023 C256.631 273.645 256.326 287.944 253.375 302.312 C253.077 303.831 253.077 303.831 252.773 305.381 C243.606 351.223 222.582 395.676 189.988 429.582 C187.777 431.892 185.686 434.245 183.625 436.688 C180.816 439.93 177.78 442.722 174.504 445.488 C173.064 446.722 171.656 447.992 170.277 449.293 C138.038 479.652 95.081 498.903 52.188 508.062 C51.263 508.261 50.338 508.46 49.385 508.665 C33.178 511.957 17.245 512.688 0.75 512.625 C-0.777 512.622 -0.777 512.622 -2.336 512.618 C-16.957 512.569 -31.256 512.263 -45.625 509.312 C-46.638 509.114 -47.65 508.915 -48.693 508.71 C-94.535 499.543 -138.988 478.52 -172.895 445.926 C-175.205 443.715 -177.557 441.624 -180 439.562 C-183.243 436.753 -186.035 433.717 -188.801 430.441 C-190.034 429.002 -191.304 427.593 -192.605 426.215 C-222.964 393.976 -242.216 351.019 -251.375 308.125 C-251.574 307.2 -251.773 306.275 -251.978 305.323 C-255.269 289.116 -256 273.182 -255.938 256.688 C-255.935 255.669 -255.933 254.651 -255.931 253.602 C-255.881 238.98 -255.576 224.681 -252.625 210.312 C-252.426 209.3 -252.228 208.287 -252.023 207.244 C-242.856 161.402 -221.832 116.949 -189.238 83.043 C-187.027 80.733 -184.936 78.38 -182.875 75.938 C-180.066 72.695 -177.03 69.903 -173.754 67.137 C-172.314 65.903 -170.906 64.633 -169.527 63.332 C-137.288 32.973 -94.331 13.722 -51.438 4.562 C-50.513 4.364 -49.588 4.165 -48.635 3.96 C-32.428 0.668 -16.495 -0.063 0 0 Z " fill="#FE0000" transform="translate(255.625,-0.3125)"/>
<path d="M0 0 C0 84.48 0 168.96 0 256 C-84.48 256 -168.96 256 -256 256 C-256 192.332 -234.297 129.214 -189.613 82.73 C-187.402 80.42 -185.311 78.068 -183.25 75.625 C-180.441 72.382 -177.405 69.59 -174.129 66.824 C-172.689 65.591 -171.281 64.321 -169.902 63.02 C-124.46 20.228 -61.32 0 0 0 Z " fill="#000095" transform="translate(256,0)"/>
<path d="M0 0 C2.864 0.406 4.926 1.31 7.523 2.59 C8.64 3.049 9.756 3.508 10.906 3.98 C23.249 9.472 32.347 17.879 37.523 30.59 C42.145 44.507 42.104 57.394 35.523 70.59 C28.337 83.708 18.208 90.43 4.504 95.766 C-7.099 98.974 -20.564 96.283 -31.164 91.027 C-38.42 86.778 -45.896 80.344 -49.477 72.59 C-49.036 69.006 -47.949 66.186 -46.289 63 C-45.619 61.711 -45.619 61.711 -44.936 60.396 C-44.455 59.491 -43.973 58.585 -43.477 57.652 C-42.977 56.711 -42.478 55.769 -41.964 54.799 C-37.846 47.12 -33.481 39.732 -28.477 32.59 C-27.962 31.855 -27.448 31.121 -26.918 30.364 C-22.898 24.672 -18.743 19.098 -14.477 13.59 C-13.665 12.527 -13.665 12.527 -12.836 11.443 C-4.835 1.151 -4.835 1.151 0 0 Z " fill="#FEFEFE" transform="translate(71.4765625,79.41015625)"/>
<path d="M0 0 C3.984 13.932 7.866 27.849 11 42 C4.709 36.837 -1.034 31.152 -6.782 25.403 C-8.453 23.735 -10.131 22.074 -11.811 20.414 C-12.873 19.355 -13.935 18.295 -14.996 17.234 C-15.751 16.491 -15.751 16.491 -16.52 15.732 C-20 12.229 -20 12.229 -20 10 C-19.371 9.781 -18.742 9.562 -18.094 9.336 C-12.549 7.282 -8.153 4.946 -3.594 1.172 C-2 0 -2 0 0 0 Z " fill="#F3F3FA" transform="translate(101,169)"/>
<path d="M0 0 C2.81 1.28 4.854 2.607 7.024 4.797 C7.865 5.638 7.865 5.638 8.722 6.496 C9.314 7.098 9.906 7.7 10.516 8.32 C11.131 8.939 11.747 9.558 12.382 10.195 C14.343 12.167 16.296 14.146 18.25 16.125 C19.58 17.465 20.911 18.805 22.242 20.145 C25.5 23.424 28.752 26.711 32 30 C28.98 31.51 27.056 30.362 23.848 29.453 C22.595 29.102 21.343 28.752 20.053 28.391 C18.723 28.011 17.393 27.63 16.062 27.25 C14.768 26.885 13.473 26.52 12.178 26.156 C9.649 25.444 7.121 24.73 4.594 24.014 C-0.262 22.644 -5.129 21.316 -10 20 C-8.488 16.923 -6.814 14.036 -5 11.125 C-2.8 7.498 -1.088 4.133 0 0 Z " fill="#F3F3FA" transform="translate(115,145)"/>
<path d="M0 0 C4.53 2.226 8.801 4.842 13.125 7.441 C15.515 8.737 17.352 9.535 20 10 C18.72 12.81 17.393 14.854 15.203 17.024 C14.642 17.585 14.082 18.145 13.504 18.722 C12.902 19.314 12.3 19.906 11.68 20.516 C11.061 21.131 10.442 21.747 9.805 22.382 C7.833 24.343 5.854 26.296 3.875 28.25 C2.535 29.58 1.195 30.911 -0.145 32.242 C-3.424 35.5 -6.711 38.752 -10 42 C-11.51 38.98 -10.362 37.056 -9.453 33.848 C-9.102 32.595 -8.752 31.343 -8.391 30.053 C-8.011 28.723 -7.63 27.393 -7.25 26.062 C-6.885 24.768 -6.52 23.473 -6.156 22.178 C-5.444 19.649 -4.73 17.121 -4.014 14.594 C-2.644 9.738 -1.316 4.871 0 0 Z " fill="#F3F3FA" transform="translate(27,169)"/>
<path d="M0 0 C-4.229 4.279 -8.465 8.551 -12.708 12.817 C-14.151 14.271 -15.592 15.726 -17.032 17.183 C-19.097 19.272 -21.169 21.355 -23.242 23.438 C-23.888 24.094 -24.534 24.75 -25.199 25.426 C-25.8 26.027 -26.4 26.627 -27.019 27.246 C-27.812 28.046 -27.812 28.046 -28.621 28.861 C-30 30 -30 30 -32 30 C-32.329 29.056 -32.329 29.056 -32.664 28.094 C-34.718 22.549 -37.054 18.153 -40.828 13.594 C-42 12 -42 12 -42 10 C-34.721 7.951 -27.44 5.911 -20.155 3.881 C-18.228 3.343 -16.302 2.803 -14.376 2.26 C-12.273 1.667 -10.168 1.082 -8.062 0.5 C-6.919 0.18 -5.776 -0.139 -4.598 -0.469 C-2 -1 -2 -1 0 0 Z " fill="#F3F3FA" transform="translate(147,81)"/>
<path d="M0 0 C1.338 2.676 0.724 3.762 -0.039 6.629 C-0.288 7.574 -0.536 8.52 -0.792 9.494 C-1.205 11.013 -1.205 11.013 -1.625 12.562 C-1.898 13.59 -2.172 14.617 -2.454 15.676 C-4.819 24.495 -7.349 33.262 -10 42 C-13.091 40.519 -15.967 38.812 -18.875 37 C-22.502 34.8 -25.867 33.088 -30 32 C-28.72 29.19 -27.393 27.146 -25.203 24.976 C-24.642 24.415 -24.082 23.855 -23.504 23.278 C-22.902 22.686 -22.3 22.094 -21.68 21.484 C-21.061 20.869 -20.442 20.253 -19.805 19.618 C-17.833 17.657 -15.854 15.704 -13.875 13.75 C-12.535 12.42 -11.195 11.089 -9.855 9.758 C-6.576 6.5 -3.289 3.248 0 0 Z " fill="#F3F3FA" transform="translate(111,45)"/>
<path d="M0 0 C-0.689 5.629 -1.905 11.01 -3.312 16.5 C-3.533 17.369 -3.753 18.238 -3.979 19.134 C-5.921 26.773 -7.937 34.392 -10 42 C-10.66 42 -11.32 42 -12 42 C-12.196 41.204 -12.393 40.408 -12.595 39.588 C-13.337 36.587 -14.081 33.587 -14.826 30.586 C-15.302 28.669 -15.775 26.75 -16.248 24.832 C-17.827 18.484 -19.468 12.194 -21.473 5.966 C-22 4 -22 4 -22 1 C-18.708 0.833 -15.417 0.666 -12.125 0.5 C-11.188 0.452 -10.251 0.405 -9.285 0.355 C-8.389 0.31 -7.493 0.265 -6.57 0.219 C-5.743 0.177 -4.915 0.135 -4.063 0.092 C-2.71 0.032 -1.355 0 0 0 Z " fill="#F6F6FB" transform="translate(75,181)"/>
<path d="M0 0 C7.412 1.148 14.402 2.927 21.56 5.101 C27.982 7.037 34.439 8.597 41 10 C41 10.66 41 11.32 41 12 C40.204 12.196 39.408 12.393 38.588 12.595 C35.587 13.337 32.587 14.081 29.586 14.826 C27.669 15.302 25.75 15.775 23.832 16.248 C17.513 17.82 11.255 19.449 5.064 21.473 C3 22 3 22 -1 22 C-0.67 14.74 -0.34 7.48 0 0 Z " fill="#F6F6FB" transform="translate(118,117)"/>
<path d="M0 0 C0.66 0 1.32 0 2 0 C5 3.462 5 3.462 5 6 C2.69 6.33 0.38 6.66 -2 7 C-1.34 4.69 -0.68 2.38 0 0 Z " fill="#F4F4FA" transform="translate(18,159)"/>
</svg>