
<!-- Generator: visioncortex VTracer 0.6.4 -->
<svg version="1.1" xmlns="http://www.w3.org/2000/svg" viewBox="0 0 512 512" preserveAspectRatio="xMidYMid meet">
<path d="M0 0 C1.018 0.002 2.036 0.004 3.086 0.007 C17.707 0.056 32.006 0.362 46.375 3.312 C47.894 3.611 47.894 3.611 49.443 3.915 C95.285 13.082 139.738 34.105 173.645 66.699 C175.955 68.91 178.307 71.001 180.75 73.062 C183.993 75.872 186.785 78.908 189.551 82.184 C190.784 83.623 192.054 85.032 193.355 86.41 C223.714 118.649 242.966 161.606 252.125 204.5 C252.423 205.887 252.423 205.887 252.728 207.302 C256.019 223.509 256.75 239.443 256.688 255.938 C256.685 256.956 256.683 257.974 256.681 259.023 C256.631 273.645 256.326 287.944 253.375 302.312 C253.077 303.831 253.077 303.831 252.773 305.381 C243.606 351.223 222.582 395.676 189.988 429.582 C187.777 431.892 185.686 434.245 183.625 436.688 C180.816 439.93 177.78 442.722 174.504 445.488 C173.064 446.722 171.656 447.992 170.277 449.293 C138.038 479.652 95.081 498.903 52.188 508.062 C51.263 508.261 50.338 508.46 49.385 508.665 C33.178 511.957 17.245 512.688 0.75 512.625 C-0.777 512.622 -0.777 512.622 -2.336 512.618 C-16.957 512.569 -31.256 512.263 -45.625 509.312 C-46.638 509.114 -47.65 508.915 -48.693 508.71 C-94.535 499.543 -138.988 478.52 -172.895 445.926 C-175.205 443.715 -177.557 441.624 -180 439.562 C-183.243 436.753 -186.035 433.717 -188.801 430.441 C-190.034 429.002 -191.304 427.593 -192.605 426.215 C-222.964 393.976 -242.216 351.019 -251.375 308.125 C-251.574 307.2 -251.773 306.275 -251.978 305.323 C-255.269 289.116 -256 273.182 -255.938 256.688 C-255.935 255.669 -255.933 254.651 -255.931 253.602 C-255.881 238.98 -255.576 224.681 -252.625 210.312 C-252.426 209.3 -252.228 208.287 -252.023 207.244 C-242.856 161.402 -221.832 116.949 -189.238 83.043 C-187.027 80.733 -184.936 78.38 -182.875 75.938 C-180.066 72.695 -177.03 69.903 -173.754 67.137 C-172.314 65.903 -170.906 64.633 -169.527 63.332 C-137.288 32.973 -94.331 13.722 -51.438 4.562 C-50.513 4.364 -49.588 4.165 -48.635 3.96 C-32.428 0.668 -16.495 -0.063 0 0 Z " fill="#FFFFFF" transform="translate(255.625,-0.3125)"/>
<path d="M0 0 C159.72 0 319.44 0 484 0 C481.925 6.916 479.797 13.196 476.812 19.688 C476.417 20.553 476.022 21.419 475.615 22.311 C464.504 46.396 450.042 69.099 431.613 88.27 C429.402 90.58 427.311 92.932 425.25 95.375 C422.441 98.618 419.405 101.41 416.129 104.176 C414.689 105.409 413.281 106.679 411.902 107.98 C379.663 138.339 336.706 157.591 293.812 166.75 C292.888 166.949 291.963 167.148 291.01 167.353 C274.803 170.644 258.87 171.375 242.375 171.312 C241.357 171.31 240.339 171.308 239.289 171.306 C224.668 171.256 210.369 170.951 196 168 C194.987 167.801 193.975 167.603 192.932 167.398 C147.09 158.231 102.637 137.207 68.73 104.613 C66.42 102.402 64.068 100.311 61.625 98.25 C58.382 95.441 55.59 92.405 52.824 89.129 C51.591 87.689 50.321 86.281 49.02 84.902 C31.619 66.424 0 26.475 0 0 Z " fill="#21468B" transform="translate(14,341)"/>
<path d="M0 0 C1.018 0.002 2.036 0.004 3.086 0.007 C17.707 0.056 32.006 0.362 46.375 3.312 C47.894 3.611 47.894 3.611 49.443 3.915 C95.285 13.082 139.738 34.105 173.645 66.699 C175.955 68.91 178.307 71.001 180.75 73.062 C183.993 75.872 186.785 78.908 189.551 82.184 C190.784 83.623 192.054 85.032 193.355 86.41 C210.756 104.889 242.375 144.838 242.375 171.312 C82.655 171.312 -77.065 171.312 -241.625 171.312 C-239.55 164.397 -237.422 158.117 -234.438 151.625 C-234.042 150.759 -233.647 149.893 -233.24 149.001 C-222.129 124.916 -207.667 102.213 -189.238 83.043 C-187.027 80.733 -184.936 78.38 -182.875 75.938 C-180.066 72.695 -177.03 69.903 -173.754 67.137 C-172.314 65.903 -170.906 64.633 -169.527 63.332 C-137.288 32.973 -94.331 13.722 -51.438 4.562 C-50.513 4.364 -49.588 4.165 -48.635 3.96 C-32.428 0.668 -16.495 -0.063 0 0 Z " fill="#AE1C28" transform="translate(255.625,-0.3125)"/>
</svg>