
<!-- Generator: visioncortex VTracer 0.6.4 -->
<svg version="1.1" xmlns="http://www.w3.org/2000/svg" viewBox="0 0 512 512" preserveAspectRatio="xMidYMid meet">
<path d="M0 0 C1.018 0.002 2.036 0.004 3.086 0.007 C17.707 0.056 32.006 0.362 46.375 3.312 C47.894 3.611 47.894 3.611 49.443 3.915 C95.285 13.082 139.738 34.105 173.645 66.699 C175.955 68.91 178.307 71.001 180.75 73.062 C183.993 75.872 186.785 78.908 189.551 82.184 C190.784 83.623 192.054 85.032 193.355 86.41 C223.714 118.649 242.966 161.606 252.125 204.5 C252.423 205.887 252.423 205.887 252.728 207.302 C256.019 223.509 256.75 239.443 256.688 255.938 C256.685 256.956 256.683 257.974 256.681 259.023 C256.631 273.645 256.326 287.944 253.375 302.312 C253.077 303.831 253.077 303.831 252.773 305.381 C243.606 351.223 222.582 395.676 189.988 429.582 C187.777 431.892 185.686 434.245 183.625 436.688 C180.816 439.93 177.78 442.722 174.504 445.488 C173.064 446.722 171.656 447.992 170.277 449.293 C138.038 479.652 95.081 498.903 52.188 508.062 C51.263 508.261 50.338 508.46 49.385 508.665 C33.178 511.957 17.245 512.688 0.75 512.625 C-0.777 512.622 -0.777 512.622 -2.336 512.618 C-16.957 512.569 -31.256 512.263 -45.625 509.312 C-46.638 509.114 -47.65 508.915 -48.693 508.71 C-94.535 499.543 -138.988 478.52 -172.895 445.926 C-175.205 443.715 -177.557 441.624 -180 439.562 C-183.243 436.753 -186.035 433.717 -188.801 430.441 C-190.034 429.002 -191.304 427.593 -192.605 426.215 C-222.964 393.976 -242.216 351.019 -251.375 308.125 C-251.574 307.2 -251.773 306.275 -251.978 305.323 C-255.269 289.116 -256 273.182 -255.938 256.688 C-255.935 255.669 -255.933 254.651 -255.931 253.602 C-255.881 238.98 -255.576 224.681 -252.625 210.312 C-252.426 209.3 -252.228 208.287 -252.023 207.244 C-242.856 161.402 -221.832 116.949 -189.238 83.043 C-187.027 80.733 -184.936 78.38 -182.875 75.938 C-180.066 72.695 -177.03 69.903 -173.754 67.137 C-172.314 65.903 -170.906 64.633 -169.527 63.332 C-137.288 32.973 -94.331 13.722 -51.438 4.562 C-50.513 4.364 -49.588 4.165 -48.635 3.96 C-32.428 0.668 -16.495 -0.063 0 0 Z " fill="#FEFEFE" transform="translate(255.625,-0.3125)"/>
<path d="M0 0 C159.72 0 319.44 0 484 0 C481.925 6.916 479.797 13.196 476.812 19.688 C476.417 20.553 476.022 21.419 475.615 22.311 C464.504 46.396 450.042 69.099 431.613 88.27 C429.402 90.58 427.311 92.932 425.25 95.375 C422.441 98.618 419.405 101.41 416.129 104.176 C414.689 105.409 413.281 106.679 411.902 107.98 C379.663 138.339 336.706 157.591 293.812 166.75 C292.888 166.949 291.963 167.148 291.01 167.353 C274.803 170.644 258.87 171.375 242.375 171.312 C241.357 171.31 240.339 171.308 239.289 171.306 C224.668 171.256 210.369 170.951 196 168 C194.987 167.801 193.975 167.603 192.932 167.398 C147.09 158.231 102.637 137.207 68.73 104.613 C66.42 102.402 64.068 100.311 61.625 98.25 C58.382 95.441 55.59 92.405 52.824 89.129 C51.591 87.689 50.321 86.281 49.02 84.902 C31.619 66.424 0 26.475 0 0 Z " fill="#128807" transform="translate(14,341)"/>
<path d="M0 0 C1.018 0.002 2.036 0.004 3.086 0.007 C17.707 0.056 32.006 0.362 46.375 3.312 C47.894 3.611 47.894 3.611 49.443 3.915 C95.285 13.082 139.738 34.105 173.645 66.699 C175.955 68.91 178.307 71.001 180.75 73.062 C183.993 75.872 186.785 78.908 189.551 82.184 C190.784 83.623 192.054 85.032 193.355 86.41 C210.756 104.889 242.375 144.838 242.375 171.312 C82.655 171.312 -77.065 171.312 -241.625 171.312 C-239.55 164.397 -237.422 158.117 -234.438 151.625 C-234.042 150.759 -233.647 149.893 -233.24 149.001 C-222.129 124.916 -207.667 102.213 -189.238 83.043 C-187.027 80.733 -184.936 78.38 -182.875 75.938 C-180.066 72.695 -177.03 69.903 -173.754 67.137 C-172.314 65.903 -170.906 64.633 -169.527 63.332 C-137.288 32.973 -94.331 13.722 -51.438 4.562 C-50.513 4.364 -49.588 4.165 -48.635 3.96 C-32.428 0.668 -16.495 -0.063 0 0 Z " fill="#FF9933" transform="translate(255.625,-0.3125)"/>
<path d="M0 0 C1.046 0.004 2.092 0.009 3.17 0.013 C12.067 0.207 19.148 1.829 27.25 5.5 C28.167 5.884 29.083 6.268 30.027 6.664 C46.604 14.173 58.993 29.083 65.513 45.826 C71.115 61.81 70.199 80.162 63.25 95.5 C62.866 96.417 62.482 97.333 62.086 98.277 C54.175 115.74 39.225 126.624 21.93 133.641 C4.217 139.321 -14.73 138.147 -31.27 129.703 C-46.006 121.125 -57.112 109.279 -63.75 93.5 C-64.143 92.618 -64.536 91.737 -64.941 90.828 C-70.362 76.548 -69.902 58.237 -64.359 44.043 C-55.86 25.332 -41.947 11.174 -22.75 3.5 C-15.128 0.921 -8.029 -0.05 0 0 Z " fill="#F6F6FA" transform="translate(255.75,187.5)"/>
<path d="M0 0 C3.3 0 6.6 0 10 0 C10.495 1.485 10.495 1.485 11 3 C13.386 2.424 15.667 1.778 18 1 C20.352 1.598 22.689 2.259 25 3 C25.495 4.98 25.495 4.98 26 7 C27.258 6.938 28.516 6.876 29.812 6.812 C33.722 6.792 33.722 6.792 36 8.5 C36.495 9.243 36.495 9.243 37 10 C36.393 10.09 35.785 10.18 35.159 10.272 C32.409 11.199 31.894 12.168 30.449 14.648 C30.001 15.401 29.553 16.154 29.092 16.93 C28.629 17.737 28.165 18.544 27.688 19.375 C26.712 21.028 25.735 22.68 24.758 24.332 C24.286 25.136 23.815 25.94 23.329 26.768 C21.651 29.585 19.867 32.325 18.062 35.062 C15.193 39.518 12.956 44.079 11 49 C10.34 49 9.68 49 9 49 C9.269 48.152 9.269 48.152 9.544 47.287 C11.77 40.098 13.518 32.836 15.188 25.5 C15.46 24.322 15.733 23.144 16.014 21.93 C17.42 16.519 17.42 16.519 18 11 C11.371 29.106 11.371 29.106 8 48 C7.34 48 6.68 48 6 48 C6 33.81 6 19.62 6 5 C5.34 5 4.68 5 4 5 C4 19.19 4 33.38 4 48 C3.34 48 2.68 48 2 48 C1.876 47.123 1.752 46.247 1.625 45.344 C-0.476 32.42 -4.657 20.325 -9 8 C-8.098 12.462 -7.176 16.918 -6.25 21.375 C-5.997 22.627 -5.745 23.878 -5.484 25.168 C-4.104 31.759 -2.524 37.88 0.239 44.034 C1 46 1 46 1 49 C0.34 49 -0.32 49 -1 49 C-1.461 48.019 -1.923 47.038 -2.398 46.027 C-7.168 36.092 -12.676 27.019 -19 18 C-12.527 32.487 -12.527 32.487 -4.188 45.938 C-2 49 -2 49 -2 51 C-2.66 51 -3.32 51 -4 51 C-4 51.66 -4 52.32 -4 53 C-7.402 51.746 -10.202 50.31 -13.152 48.211 C-18.07 44.857 -23.216 42.222 -28.562 39.625 C-29.476 39.175 -30.389 38.725 -31.33 38.262 C-33.551 37.169 -35.774 36.082 -38 35 C-35.001 37.002 -32.001 39.001 -29 41 C-28.054 41.631 -28.054 41.631 -27.09 42.274 C-20.289 46.794 -13.627 50.975 -6 54 C-6 54.66 -6 55.32 -6 56 C-9.51 55.379 -12.665 54.433 -16 53.188 C-25.075 50.075 -34.571 48.648 -44 47 C-25.894 53.629 -25.894 53.629 -7 57 C-7 57.66 -7 58.32 -7 59 C-21.19 59 -35.38 59 -50 59 C-50 59.66 -50 60.32 -50 61 C-35.81 61 -21.62 61 -7 61 C-7 61.66 -7 62.32 -7 63 C-7.877 63.124 -8.753 63.248 -9.656 63.375 C-22.58 65.476 -34.675 69.657 -47 74 C-42.538 73.098 -38.082 72.176 -33.625 71.25 C-32.373 70.997 -31.122 70.745 -29.832 70.484 C-23.241 69.104 -17.12 67.524 -10.966 64.761 C-9 64 -9 64 -6 64 C-6 64.66 -6 65.32 -6 66 C-7.471 66.692 -7.471 66.692 -8.973 67.398 C-18.908 72.168 -27.981 77.676 -37 84 C-22.513 77.527 -22.513 77.527 -9.062 69.188 C-6 67 -6 67 -4 67 C-4 67.66 -4 68.32 -4 69 C-3.34 69 -2.68 69 -2 69 C-3.254 72.402 -4.69 75.202 -6.789 78.152 C-10.143 83.07 -12.778 88.216 -15.375 93.562 C-15.825 94.476 -16.275 95.389 -16.738 96.33 C-17.831 98.551 -18.918 100.774 -20 103 C-17.998 100.001 -15.999 97.001 -14 94 C-13.579 93.37 -13.159 92.739 -12.726 92.09 C-8.206 85.289 -4.025 78.627 -1 71 C-0.34 71 0.32 71 1 71 C0.826 71.535 0.652 72.07 0.473 72.621 C-2.052 80.682 -3.864 88.885 -5.688 97.125 C-6.011 98.573 -6.334 100.021 -6.658 101.469 C-7.443 104.978 -8.223 108.489 -9 112 C-7.743 108.236 -6.499 104.468 -5.265 100.696 C-4.641 98.798 -4.008 96.903 -3.375 95.008 C-0.887 87.383 0.962 79.956 2 72 C2.66 72 3.32 72 4 72 C3.995 72.571 3.99 73.142 3.984 73.73 C3.865 88.85 4.246 103.9 5 119 C3.35 119 1.7 119 0 119 C-0.33 118.34 -0.66 117.68 -1 117 C-1.516 117.165 -2.031 117.33 -2.562 117.5 C-6.877 118.385 -10.821 118.393 -15 117 C-15.688 114.938 -15.688 114.938 -16 113 C-17.238 113.062 -18.475 113.124 -19.75 113.188 C-22.586 113.182 -23.864 113.07 -26.438 111.75 C-28.16 109.821 -28.65 108.539 -29 106 C-30.609 105.629 -30.609 105.629 -32.25 105.25 C-36.065 103.978 -37.728 103.271 -40 100 C-40.25 96.75 -40.25 96.75 -40 94 C-40.763 94.103 -41.526 94.206 -42.312 94.312 C-45 94 -45 94 -46.812 92 C-48.365 88.079 -48.213 85.198 -48 81 C-49.32 80.67 -50.64 80.34 -52 80 C-52.389 78.545 -52.761 77.086 -53.125 75.625 C-53.334 74.813 -53.543 74.001 -53.758 73.164 C-53.838 72.45 -53.918 71.736 -54 71 C-53.01 70.01 -53.01 70.01 -52 69 C-52 68.01 -52 67.02 -52 66 C-52.99 65.67 -53.98 65.34 -55 65 C-55 61.7 -55 58.4 -55 55 C-53.515 54.505 -53.515 54.505 -52 54 C-52.165 53.484 -52.33 52.969 -52.5 52.438 C-53.385 48.123 -53.393 44.179 -52 40 C-49.938 39.312 -49.938 39.312 -48 39 C-48.093 37.144 -48.093 37.144 -48.188 35.25 C-48.182 32.414 -48.07 31.136 -46.75 28.562 C-44.821 26.84 -43.539 26.35 -41 26 C-40.752 24.928 -40.505 23.855 -40.25 22.75 C-38.972 18.916 -38.235 17.336 -35 15 C-33.969 14.856 -32.938 14.711 -31.875 14.562 C-30.926 14.377 -29.977 14.191 -29 14 C-27.753 11.59 -27.753 11.59 -27 9 C-23.911 6.941 -23.291 6.761 -19.812 6.875 C-17.925 6.937 -17.925 6.937 -16 7 C-15.897 6.361 -15.794 5.721 -15.688 5.062 C-15.461 4.382 -15.234 3.701 -15 3 C-10.356 1.452 -5.675 1.504 -1 3 C-0.67 2.01 -0.34 1.02 0 0 Z M-29 26 C-27.623 29.058 -26.026 31.274 -23.734 33.715 C-23.091 34.401 -22.448 35.088 -21.785 35.795 C-21.114 36.502 -20.442 37.209 -19.75 37.938 C-18.766 38.992 -18.766 38.992 -17.762 40.068 C-14.045 44.011 -10.327 47.729 -6 51 C-5.34 51 -4.68 51 -4 51 C-7.571 43.302 -14.215 37.72 -20.312 32 C-20.935 31.412 -21.558 30.823 -22.2 30.217 C-25.123 27.088 -25.123 27.088 -29 26 Z M-12 74.312 C-12.576 74.849 -13.152 75.386 -13.745 75.939 C-19.107 80.996 -24.412 86.221 -29 92 C-29 92.66 -29 93.32 -29 94 C-25.942 92.623 -23.726 91.026 -21.285 88.734 C-20.599 88.091 -19.912 87.448 -19.205 86.785 C-18.498 86.114 -17.791 85.442 -17.062 84.75 C-16.008 83.766 -16.008 83.766 -14.932 82.762 C-10.989 79.045 -7.271 75.327 -4 71 C-4 70.34 -4 69.68 -4 69 C-7.453 69 -9.591 72.051 -12 74.312 Z " fill="#F6F6FA" transform="translate(251,196)"/>
<path d="M0 0 C1.046 0.004 2.092 0.009 3.17 0.013 C12.067 0.207 19.148 1.829 27.25 5.5 C28.167 5.884 29.083 6.268 30.027 6.664 C46.604 14.173 58.993 29.083 65.513 45.826 C71.115 61.81 70.199 80.162 63.25 95.5 C62.866 96.417 62.482 97.333 62.086 98.277 C54.175 115.74 39.225 126.624 21.93 133.641 C4.217 139.321 -14.73 138.147 -31.27 129.703 C-46.006 121.125 -57.112 109.279 -63.75 93.5 C-64.143 92.618 -64.536 91.737 -64.941 90.828 C-70.362 76.548 -69.902 58.237 -64.359 44.043 C-55.86 25.332 -41.947 11.174 -22.75 3.5 C-15.128 0.921 -8.029 -0.05 0 0 Z M-4.75 8.5 C-5.08 9.49 -5.41 10.48 -5.75 11.5 C-6.266 11.335 -6.781 11.17 -7.312 11 C-11.627 10.115 -15.571 10.107 -19.75 11.5 C-20.483 13.515 -20.483 13.515 -20.75 15.5 C-21.988 15.438 -23.225 15.376 -24.5 15.312 C-27.336 15.318 -28.614 15.43 -31.188 16.75 C-32.91 18.679 -33.4 19.961 -33.75 22.5 C-34.822 22.748 -35.895 22.995 -37 23.25 C-40.834 24.528 -42.414 25.265 -44.75 28.5 C-44.967 30.047 -44.967 30.047 -45.188 31.625 C-45.373 32.574 -45.559 33.523 -45.75 34.5 C-48.188 35.688 -48.188 35.688 -50.75 36.5 C-52.809 39.589 -52.989 40.209 -52.875 43.688 C-52.834 44.946 -52.792 46.204 -52.75 47.5 C-53.709 47.655 -53.709 47.655 -54.688 47.812 C-55.708 48.153 -55.708 48.153 -56.75 48.5 C-58.298 53.144 -58.246 57.825 -56.75 62.5 C-58.235 62.995 -58.235 62.995 -59.75 63.5 C-59.75 66.8 -59.75 70.1 -59.75 73.5 C-58.76 73.83 -57.77 74.16 -56.75 74.5 C-57.326 76.886 -57.972 79.167 -58.75 81.5 C-58.152 83.852 -57.491 86.189 -56.75 88.5 C-55.43 88.83 -54.11 89.16 -52.75 89.5 C-52.812 90.717 -52.874 91.934 -52.938 93.188 C-52.924 97.069 -52.444 99.528 -49.75 102.5 C-47.123 102.918 -47.123 102.918 -44.75 102.5 C-44.853 103.387 -44.956 104.274 -45.062 105.188 C-45.029 108.642 -45.029 108.642 -42.625 111.312 C-39.917 113.732 -39.917 113.732 -36.562 114 C-35.634 114.165 -34.706 114.33 -33.75 114.5 C-32.562 116.938 -32.562 116.938 -31.75 119.5 C-28.661 121.559 -28.041 121.739 -24.562 121.625 C-23.304 121.584 -22.046 121.543 -20.75 121.5 C-20.595 122.459 -20.595 122.459 -20.438 123.438 C-20.211 124.118 -19.984 124.799 -19.75 125.5 C-15.106 127.048 -10.425 126.996 -5.75 125.5 C-5.42 126.49 -5.09 127.48 -4.75 128.5 C-1.45 128.5 1.85 128.5 5.25 128.5 C5.745 127.015 5.745 127.015 6.25 125.5 C8.636 126.076 10.917 126.722 13.25 127.5 C16.907 126.338 16.907 126.338 20.25 124.5 C20.745 123.015 20.745 123.015 21.25 121.5 C22.488 121.562 23.725 121.624 25 121.688 C27.836 121.682 29.114 121.57 31.688 120.25 C33.41 118.321 33.9 117.039 34.25 114.5 C35.859 114.129 35.859 114.129 37.5 113.75 C41.334 112.472 42.914 111.735 45.25 108.5 C45.394 107.469 45.539 106.438 45.688 105.375 C45.966 103.952 45.966 103.952 46.25 102.5 C48.688 101.312 48.688 101.312 51.25 100.5 C53.309 97.411 53.489 96.791 53.375 93.312 C53.334 92.054 53.293 90.796 53.25 89.5 C53.869 89.335 54.488 89.17 55.125 89 C58.08 86.914 58.309 84.785 59.148 81.375 C59.182 80.756 59.215 80.137 59.25 79.5 C58.59 78.84 57.93 78.18 57.25 77.5 C57.25 76.51 57.25 75.52 57.25 74.5 C58.24 74.17 59.23 73.84 60.25 73.5 C60.25 70.2 60.25 66.9 60.25 63.5 C58.765 63.005 58.765 63.005 57.25 62.5 C57.415 61.984 57.58 61.469 57.75 60.938 C58.635 56.623 58.643 52.679 57.25 48.5 C55.235 47.767 55.235 47.767 53.25 47.5 C53.312 46.262 53.374 45.025 53.438 43.75 C53.432 40.914 53.32 39.636 52 37.062 C50.071 35.34 48.789 34.85 46.25 34.5 C45.879 32.891 45.879 32.891 45.5 31.25 C44.222 27.416 43.485 25.836 40.25 23.5 C39.219 23.356 38.188 23.211 37.125 23.062 C36.176 22.877 35.228 22.691 34.25 22.5 C33.062 20.063 33.062 20.063 32.25 17.5 C29.161 15.441 28.541 15.261 25.062 15.375 C23.175 15.437 23.175 15.437 21.25 15.5 C20.755 13.52 20.755 13.52 20.25 11.5 C18.795 11.111 17.336 10.739 15.875 10.375 C15.063 10.166 14.251 9.957 13.414 9.742 C12.343 9.622 12.343 9.622 11.25 9.5 C10.59 10.16 9.93 10.82 9.25 11.5 C8.26 11.5 7.27 11.5 6.25 11.5 C5.755 10.015 5.755 10.015 5.25 8.5 C1.95 8.5 -1.35 8.5 -4.75 8.5 Z " fill="#08088B" transform="translate(255.75,187.5)"/>
<path d="M0 0 C3.316 4.973 4.719 10.72 6.562 16.375 C6.974 17.588 7.386 18.801 7.811 20.051 C10.43 28.085 11.772 35.551 12 44 C12.66 44 13.32 44 14 44 C13.752 42.267 13.752 42.267 13.5 40.5 C12.071 27.411 13.151 14.097 14 1 C14.66 1 15.32 1 16 1 C17.917 30.58 17.917 30.58 16 44 C16.66 44 17.32 44 18 44 C18.013 43.251 18.027 42.502 18.041 41.73 C18.472 32.047 20.955 23.763 24.062 14.688 C24.541 13.254 25.018 11.819 25.494 10.385 C26.647 6.918 27.818 3.457 29 0 C30.99 5.711 28.622 11.738 27.375 17.438 C27.126 18.646 26.877 19.854 26.621 21.1 C24.82 29.464 22.298 37.113 19 45 C19.66 45 20.32 45 21 45 C21.289 43.845 21.577 42.69 21.875 41.5 C24.471 33.651 29.491 26.858 34 20 C34.656 19 35.312 17.999 35.988 16.969 C37.313 14.97 38.647 12.98 40 11 C40.495 11.99 40.495 11.99 41 13 C40.107 15.303 40.107 15.303 38.684 18.164 C38.166 19.204 37.648 20.245 37.115 21.316 C36.285 22.954 36.285 22.954 35.438 24.625 C34.911 25.694 34.384 26.762 33.842 27.863 C31.03 33.46 28.107 38.597 24.184 43.49 C22.913 45.007 22.913 45.007 22 47 C22.66 47 23.32 47 24 47 C24 47.66 24 48.32 24 49 C24.429 48.683 24.859 48.366 25.301 48.039 C33.038 42.6 41.472 38.39 49.876 34.092 C51.748 33.129 53.604 32.135 55.457 31.137 C56.296 30.762 57.135 30.386 58 30 C58.66 30.33 59.32 30.66 60 31 C56.361 33.428 52.713 35.84 49.062 38.25 C48.041 38.932 47.019 39.614 45.967 40.316 C31.253 50 31.253 50 26 50 C26 50.66 26 51.32 26 52 C26.697 51.709 27.395 51.417 28.113 51.117 C36.631 47.81 45.274 45.625 54.188 43.625 C55.394 43.35 56.6 43.076 57.843 42.792 C58.982 42.544 60.12 42.295 61.293 42.039 C62.319 41.814 63.346 41.59 64.403 41.358 C67 41 67 41 70 42 C65.811 43.423 61.615 44.828 57.415 46.218 C55.991 46.691 54.57 47.169 53.15 47.652 C44.4 50.625 36.339 52.815 27 53 C27 53.66 27 54.32 27 55 C28.007 54.838 29.014 54.675 30.051 54.508 C43.176 52.82 56.835 54.245 70 55 C70 55.66 70 56.32 70 57 C38.281 58.82 38.281 58.82 27 57 C27 57.66 27 58.32 27 59 C28.194 58.91 29.387 58.82 30.617 58.727 C37.496 58.729 43.684 61.172 50.125 63.375 C52.586 64.196 55.047 65.016 57.508 65.836 C58.587 66.203 59.666 66.569 60.778 66.947 C64.166 68.054 67.567 69.041 71 70 C67.13 71.428 64.132 70.596 60.18 69.707 C59.192 69.486 59.192 69.486 58.184 69.261 C56.789 68.946 55.396 68.628 54.003 68.304 C51.906 67.82 49.805 67.353 47.703 66.889 C40.199 65.196 33.029 63.196 26 60 C26 60.66 26 61.32 26 62 C27.155 62.289 28.31 62.577 29.5 62.875 C37.349 65.471 44.142 70.491 51 75 C52 75.656 53.001 76.312 54.031 76.988 C56.03 78.313 58.02 79.647 60 81 C59.01 81.495 59.01 81.495 58 82 C55.697 81.107 55.697 81.107 52.836 79.684 C51.796 79.166 50.755 78.648 49.684 78.115 C48.592 77.562 47.5 77.008 46.375 76.438 C44.772 75.648 44.772 75.648 43.137 74.842 C37.54 72.03 32.403 69.107 27.51 65.184 C25.993 63.913 25.993 63.913 24 63 C24 63.66 24 64.32 24 65 C23.34 65 22.68 65 22 65 C22.317 65.429 22.634 65.859 22.961 66.301 C28.4 74.038 32.61 82.472 36.908 90.876 C37.871 92.748 38.865 94.604 39.863 96.457 C40.238 97.296 40.614 98.135 41 99 C40.67 99.66 40.34 100.32 40 101 C37.572 97.361 35.16 93.713 32.75 90.062 C32.068 89.041 31.386 88.019 30.684 86.967 C21 72.253 21 72.253 21 67 C20.34 67 19.68 67 19 67 C19.291 67.697 19.583 68.395 19.883 69.113 C23.19 77.631 25.375 86.274 27.375 95.188 C27.65 96.394 27.924 97.6 28.208 98.843 C28.456 99.982 28.705 101.12 28.961 102.293 C29.186 103.319 29.41 104.346 29.642 105.403 C30 108 30 108 29 111 C27.591 106.678 26.185 102.354 24.782 98.03 C24.305 96.56 23.827 95.091 23.348 93.622 C22.658 91.505 21.971 89.388 21.285 87.27 C21.072 86.617 20.858 85.965 20.638 85.293 C18.709 79.315 17.877 74.292 18 68 C17.34 68 16.68 68 16 68 C16.162 69.007 16.325 70.014 16.492 71.051 C18.18 84.176 16.755 97.835 16 111 C15.34 111 14.68 111 14 111 C12.18 79.281 12.18 79.281 14 68 C13.34 68 12.68 68 12 68 C11.987 68.678 11.973 69.355 11.959 70.054 C11.504 79.385 8.918 87.49 5.938 96.25 C5.459 97.688 4.982 99.127 4.506 100.566 C3.351 104.049 2.18 107.526 1 111 C-0.269 107.193 0.418 105.184 1.293 101.277 C1.44 100.617 1.588 99.957 1.739 99.277 C2.054 97.877 2.373 96.477 2.696 95.078 C3.18 92.972 3.646 90.863 4.111 88.752 C5.802 81.23 7.793 74.043 11 67 C10.34 67 9.68 67 9 67 C8.711 68.155 8.423 69.31 8.125 70.5 C5.529 78.349 0.509 85.142 -4 92 C-4.656 93 -5.312 94.001 -5.988 95.031 C-7.313 97.03 -8.647 99.02 -10 101 C-10.495 100.01 -10.495 100.01 -11 99 C-10.107 96.697 -10.107 96.697 -8.684 93.836 C-7.907 92.276 -7.907 92.276 -7.115 90.684 C-6.562 89.592 -6.008 88.5 -5.438 87.375 C-4.648 85.772 -4.648 85.772 -3.842 84.137 C-1.03 78.54 1.893 73.403 5.816 68.51 C7.087 66.993 7.087 66.993 8 65 C7.34 65 6.68 65 6 65 C6 64.34 6 63.68 6 63 C5.571 63.317 5.141 63.634 4.699 63.961 C-3.038 69.4 -11.472 73.61 -19.876 77.908 C-21.748 78.871 -23.604 79.865 -25.457 80.863 C-26.296 81.238 -27.135 81.614 -28 82 C-28.66 81.67 -29.32 81.34 -30 81 C-26.361 78.572 -22.713 76.16 -19.062 73.75 C-18.041 73.068 -17.019 72.386 -15.967 71.684 C-1.253 62 -1.253 62 4 62 C4 61.34 4 60.68 4 60 C3.051 60.375 2.102 60.75 1.125 61.137 C-7.713 64.504 -16.554 66.992 -25.812 68.938 C-27.378 69.272 -27.378 69.272 -28.975 69.614 C-37.138 71.259 -37.138 71.259 -41 70 C-36.83 68.575 -32.653 67.17 -28.469 65.782 C-27.053 65.31 -25.638 64.832 -24.225 64.348 C-15.098 61.228 -6.749 59.175 3 59 C3 58.34 3 57.68 3 57 C1.267 57.248 1.267 57.248 -0.5 57.5 C-13.589 58.929 -26.903 57.849 -40 57 C-40 56.34 -40 55.68 -40 55 C-10.42 53.083 -10.42 53.083 3 55 C3 54.34 3 53.68 3 53 C2.228 52.981 1.455 52.961 0.659 52.942 C-8.281 52.513 -15.915 50.435 -24.312 47.438 C-25.542 47.013 -26.771 46.588 -28.037 46.15 C-31.03 45.114 -34.017 44.064 -37 43 C-37 42.67 -37 42.34 -37 42 C-29.992 42.53 -23.325 43.654 -16.5 45.312 C-15.627 45.513 -14.755 45.713 -13.855 45.92 C-7.65 47.405 -1.861 49.484 4 52 C4 51.34 4 50.68 4 50 C2.845 49.711 1.69 49.423 0.5 49.125 C-7.349 46.529 -14.142 41.509 -21 37 C-22 36.344 -23.001 35.688 -24.031 35.012 C-26.03 33.687 -28.02 32.353 -30 31 C-29.34 30.67 -28.68 30.34 -28 30 C-25.697 30.893 -25.697 30.893 -22.836 32.316 C-21.796 32.834 -20.755 33.352 -19.684 33.885 C-18.592 34.438 -17.5 34.992 -16.375 35.562 C-15.306 36.089 -14.238 36.616 -13.137 37.158 C-7.54 39.97 -2.403 42.893 2.49 46.816 C4.007 48.087 4.007 48.087 6 49 C6 48.34 6 47.68 6 47 C6.66 47 7.32 47 8 47 C7.683 46.571 7.366 46.141 7.039 45.699 C1.6 37.962 -2.61 29.528 -6.908 21.124 C-7.871 19.252 -8.865 17.396 -9.863 15.543 C-10.238 14.704 -10.614 13.865 -11 13 C-10.67 12.34 -10.34 11.68 -10 11 C-7.572 14.639 -5.16 18.287 -2.75 21.938 C-2.068 22.959 -1.386 23.981 -0.684 25.033 C9 39.747 9 39.747 9 45 C9.66 45 10.32 45 11 45 C10.625 44.051 10.25 43.102 9.863 42.125 C6.495 33.282 4.034 24.46 2.125 15.188 C1.91 14.144 1.695 13.101 1.474 12.025 C0.656 7.9 0 4.223 0 0 Z M-19 22 C-15.942 23.377 -13.726 24.974 -11.285 27.266 C-10.256 28.23 -10.256 28.23 -9.205 29.215 C-8.498 29.886 -7.791 30.558 -7.062 31.25 C-6.359 31.906 -5.656 32.562 -4.932 33.238 C-0.989 36.955 2.729 40.673 6 45 C6 45.66 6 46.32 6 47 C-1.698 43.429 -7.28 36.785 -13 30.688 C-13.588 30.065 -14.177 29.442 -14.783 28.8 C-19 24.242 -19 24.242 -19 22 Z M49 22 C47.623 25.058 46.026 27.274 43.734 29.715 C42.77 30.744 42.77 30.744 41.785 31.795 C41.114 32.502 40.442 33.209 39.75 33.938 C39.094 34.641 38.438 35.344 37.762 36.068 C34.045 40.011 30.327 43.729 26 47 C25.34 47 24.68 47 24 47 C27.571 39.302 34.215 33.72 40.312 28 C40.935 27.412 41.558 26.823 42.2 26.217 C46.758 22 46.758 22 49 22 Z M6 65 C2.439 73.058 -5.067 79.222 -11.438 85.125 C-11.957 85.61 -12.477 86.096 -13.013 86.596 C-16.754 90 -16.754 90 -19 90 C-17.623 86.942 -16.026 84.726 -13.734 82.285 C-13.091 81.599 -12.448 80.912 -11.785 80.205 C-11.114 79.498 -10.442 78.791 -9.75 78.062 C-9.094 77.359 -8.438 76.656 -7.762 75.932 C2.545 65 2.545 65 6 65 Z M24 65 C31.698 68.571 37.28 75.215 43 81.312 C43.588 81.935 44.177 82.558 44.783 83.2 C49 87.758 49 87.758 49 90 C45.942 88.623 43.726 87.026 41.285 84.734 C40.599 84.091 39.912 83.448 39.205 82.785 C38.145 81.778 38.145 81.778 37.062 80.75 C36.359 80.094 35.656 79.438 34.932 78.762 C30.989 75.045 27.271 71.327 24 67 C24 66.34 24 65.68 24 65 Z " fill="#07078B" transform="translate(241,200)"/>
<path d="M0 0 C0.66 0 1.32 0 2 0 C1.826 0.535 1.652 1.07 1.473 1.621 C-1.052 9.682 -2.864 17.885 -4.688 26.125 C-5.011 27.573 -5.334 29.021 -5.658 30.469 C-6.443 33.978 -7.223 37.489 -8 41 C-6.743 37.236 -5.499 33.468 -4.265 29.696 C-3.641 27.798 -3.008 25.903 -2.375 24.008 C0.113 16.383 1.962 8.956 3 1 C3.66 1 4.32 1 5 1 C4.995 1.571 4.99 2.142 4.984 2.73 C4.865 17.85 5.246 32.9 6 48 C4.35 48 2.7 48 1 48 C0.67 47.34 0.34 46.68 0 46 C-0.773 46.248 -0.773 46.248 -1.562 46.5 C-5.877 47.385 -9.821 47.393 -14 46 C-14.688 43.938 -14.688 43.938 -15 42 C-16.238 42.062 -17.475 42.124 -18.75 42.188 C-21.586 42.182 -22.864 42.07 -25.438 40.75 C-27.16 38.821 -27.65 37.539 -28 35 C-29.98 34.67 -31.96 34.34 -34 34 C-34.495 32.515 -34.495 32.515 -35 31 C-32.504 28.475 -30.003 25.956 -27.5 23.438 C-26.804 22.733 -26.108 22.029 -25.391 21.303 C-19.252 15.135 -12.86 9.359 -6 4 C-6 7.284 -6.579 8.44 -8.117 11.273 C-8.559 12.098 -9.001 12.923 -9.457 13.773 C-9.925 14.632 -10.393 15.49 -10.875 16.375 C-11.791 18.069 -12.705 19.764 -13.617 21.461 C-14.026 22.212 -14.434 22.962 -14.855 23.736 C-16.056 26.11 -17.047 28.517 -18 31 C-7.774 16.172 -7.774 16.172 0 0 Z " fill="#F7F7FB" transform="translate(250,267)"/>
<path d="M0 0 C1.65 0 3.3 0 5 0 C5.33 0.66 5.66 1.32 6 2 C8.386 1.424 10.667 0.778 13 0 C15.352 0.598 17.689 1.259 20 2 C20.33 3.32 20.66 4.64 21 6 C22.258 5.938 23.516 5.876 24.812 5.812 C28.722 5.792 28.722 5.792 31 7.5 C31.495 8.243 31.495 8.243 32 9 C31.393 9.09 30.785 9.18 30.159 9.272 C27.409 10.199 26.894 11.168 25.449 13.648 C24.777 14.778 24.777 14.778 24.092 15.93 C23.629 16.737 23.165 17.544 22.688 18.375 C21.712 20.028 20.735 21.68 19.758 23.332 C19.051 24.538 19.051 24.538 18.329 25.768 C16.651 28.585 14.867 31.325 13.062 34.062 C10.193 38.518 7.956 43.079 6 48 C5.34 48 4.68 48 4 48 C4.18 47.435 4.359 46.869 4.544 46.287 C6.77 39.098 8.518 31.836 10.188 24.5 C10.596 22.733 10.596 22.733 11.014 20.93 C12.42 15.519 12.42 15.519 13 10 C6.371 28.106 6.371 28.106 3 47 C2.34 47 1.68 47 1 47 C1 32.81 1 18.62 1 4 C0.34 4 -0.32 4 -1 4 C-0.67 2.68 -0.34 1.36 0 0 Z " fill="#F7F7FB" transform="translate(256,197)"/>
<path d="M0 0 C0 0.66 0 1.32 0 2 C-1.333 3.115 -2.72 4.165 -4.125 5.188 C-8.982 8.975 -13.223 13.137 -17.438 17.625 C-18.04 18.258 -18.643 18.891 -19.264 19.544 C-22.62 23.167 -24.869 26.505 -27 31 C-28.866 32.953 -30.831 34.361 -33 36 C-34.5 34.875 -34.5 34.875 -36 33 C-36.188 29.812 -36.188 29.812 -36 27 C-37.65 27 -39.3 27 -41 27 C-40.453 23.625 -39.945 21.918 -38 19 C-36.21 18.469 -36.21 18.469 -34 18 C-30.019 16.238 -26.144 14.257 -22.25 12.312 C-20.661 11.536 -20.661 11.536 -19.039 10.744 C-13.436 7.953 -8.36 5.07 -3.515 1.091 C-2 0 -2 0 0 0 Z M0 2 C0.66 2 1.32 2 2 2 C0.523 6.677 0.523 6.677 -2.125 8.312 C-3.053 8.653 -3.053 8.653 -4 9 C-2.796 6.506 -1.546 4.319 0 2 Z " fill="#F2F2F9" transform="translate(247,263)"/>
<path d="M0 0 C1.65 0 3.3 0 5 0 C5.33 1.32 5.66 2.64 6 4 C7.671 4.402 7.671 4.402 9.375 4.812 C13 6 13 6 15 9 C13.962 9.921 12.92 10.837 11.875 11.75 C11.295 12.26 10.715 12.771 10.117 13.297 C8 15 8 15 5.262 16.746 C1.134 19.599 -2.416 22.877 -6.062 26.312 C-6.757 26.951 -7.451 27.59 -8.166 28.248 C-11.43 31.308 -14.333 34.285 -16.871 37.98 C-17.574 38.977 -18.276 39.973 -19 41 C-19.66 41 -20.32 41 -21 41 C-19.743 37.589 -18.3 34.78 -16.199 31.82 C-12.94 27.04 -10.346 22.068 -7.812 16.875 C-7.175 15.593 -7.175 15.593 -6.525 14.285 C-4.201 9.579 -2.016 4.846 0 0 Z " fill="#F3F3F9" transform="translate(284,206)"/>
<path d="M0 0 C0.99 0 1.98 0 3 0 C3 0.66 3 1.32 3 2 C17.19 2 31.38 2 46 2 C46 2.66 46 3.32 46 4 C44.737 4.168 44.737 4.168 43.449 4.34 C33.839 5.867 24.797 8.496 15.562 11.562 C13.739 12.163 13.739 12.163 11.88 12.775 C6.022 14.21 6.022 14.21 2 18 C1.34 18 0.68 18 0 18 C-0.625 15.125 -0.625 15.125 -1 12 C-0.34 11.34 0.32 10.68 1 10 C1 9.01 1 8.02 1 7 C0.34 6.67 -0.32 6.34 -1 6 C-0.67 4.02 -0.34 2.04 0 0 Z " fill="#F6F6FA" transform="translate(198,255)"/>
<path d="M0 0 C1.65 0 3.3 0 5 0 C5.33 0.66 5.66 1.32 6 2 C8.386 1.424 10.667 0.778 13 0 C15.188 0.438 15.188 0.438 17 1 C16 4 16 4 14 6 C12.526 9.739 11.337 13.572 10.114 17.4 C9.513 19.271 8.896 21.137 8.277 23.002 C5.716 30.951 3.995 38.708 3 47 C2.34 47 1.68 47 1 47 C1 32.81 1 18.62 1 4 C0.34 4 -0.32 4 -1 4 C-0.67 2.68 -0.34 1.36 0 0 Z " fill="#F6F6FB" transform="translate(256,197)"/>
<path d="M0 0 C0 0.66 0 1.32 0 2 C-31.719 3.82 -31.719 3.82 -43 2 C-43 1.34 -43 0.68 -43 0 C-28.864 -2.281 -14.228 -0.816 0 0 Z " fill="#27279A" transform="translate(311,255)"/>
<path d="M0 0 C1.99 5.711 -0.378 11.738 -1.625 17.438 C-1.874 18.646 -2.123 19.854 -2.379 21.1 C-4.18 29.464 -6.702 37.113 -10 45 C-10.99 44.67 -11.98 44.34 -13 44 C-12.34 44 -11.68 44 -11 44 C-10.98 42.876 -10.98 42.876 -10.959 41.73 C-10.528 32.047 -8.045 23.763 -4.938 14.688 C-4.459 13.254 -3.982 11.819 -3.506 10.385 C-2.353 6.918 -1.182 3.457 0 0 Z " fill="#161692" transform="translate(270,200)"/>
<path d="M0 0 C0.495 1.485 0.495 1.485 1 3 C-8.772 6.864 -18.521 9.775 -28.812 11.938 C-30.378 12.272 -30.378 12.272 -31.975 12.614 C-40.138 14.259 -40.138 14.259 -44 13 C-39.83 11.575 -35.653 10.17 -31.469 8.782 C-30.053 8.31 -28.638 7.832 -27.225 7.348 C-18.098 4.228 -9.749 2.175 0 2 C0 1.34 0 0.68 0 0 Z " fill="#131391" transform="translate(244,257)"/>
<path d="M0 0 C0.66 0 1.32 0 2 0 C5.083 12.897 2.753 27.876 2 41 C1.34 41 0.68 41 0 41 C-1.897 7.935 -1.897 7.935 0 0 Z " fill="#262699" transform="translate(255,270)"/>
<path d="M0 0 C0 0.66 0 1.32 0 2 C-13.507 4.185 -27.41 2.881 -41 2 C-41 1.34 -41 0.68 -41 0 C-11.729 -1.897 -11.729 -1.897 0 0 Z " fill="#28289A" transform="translate(242,255)"/>
<path d="M0 0 C0.66 0 1.32 0 2 0 C3.897 29.271 3.897 29.271 2 41 C1.34 41 0.68 41 0 41 C-2.185 27.493 -0.881 13.59 0 0 Z " fill="#28289A" transform="translate(255,201)"/>
<path d="M0 0 C7.008 0.53 13.675 1.654 20.5 3.312 C21.809 3.613 21.809 3.613 23.145 3.92 C29.35 5.405 35.139 7.484 41 10 C40.67 10.99 40.34 11.98 40 13 C40 12.34 40 11.68 40 11 C39.228 10.981 38.455 10.961 37.659 10.942 C28.719 10.513 21.085 8.435 12.688 5.438 C11.458 5.013 10.229 4.588 8.963 4.15 C5.97 3.114 2.983 2.064 0 1 C0 0.67 0 0.34 0 0 Z " fill="#151591" transform="translate(204,242)"/>
<path d="M0 0 C0.99 0.33 1.98 0.66 3 1 C2.34 1 1.68 1 1 1 C0.98 2.017 0.98 2.017 0.959 3.054 C0.504 12.385 -2.082 20.49 -5.062 29.25 C-5.541 30.688 -6.018 32.127 -6.494 33.566 C-7.649 37.049 -8.82 40.526 -10 44 C-11.269 40.193 -10.582 38.184 -9.707 34.277 C-9.56 33.617 -9.412 32.957 -9.261 32.277 C-8.946 30.877 -8.627 29.477 -8.304 28.078 C-7.82 25.972 -7.354 23.863 -6.889 21.752 C-5.198 14.23 -3.207 7.043 0 0 Z " fill="#0F0F8F" transform="translate(252,267)"/>
<path d="M0 0 C-4.189 1.423 -8.385 2.828 -12.585 4.218 C-14.009 4.691 -15.43 5.169 -16.85 5.652 C-24.907 8.39 -32.25 10.549 -40.849 10.764 C-41.914 10.881 -41.914 10.881 -43 11 C-43.33 11.66 -43.66 12.32 -44 13 C-44 12.01 -44 11.02 -44 10 C-34.84 6.174 -25.487 3.796 -15.812 1.625 C-14.606 1.35 -13.4 1.076 -12.157 0.792 C-11.018 0.544 -9.88 0.295 -8.707 0.039 C-7.681 -0.186 -6.654 -0.41 -5.597 -0.642 C-3 -1 -3 -1 0 0 Z " fill="#1F1F96" transform="translate(311,242)"/>
<path d="M0 0 C8.871 0.145 17.2 3.361 25.562 6.062 C27.063 6.54 28.564 7.018 30.064 7.494 C33.713 8.654 37.357 9.824 41 11 C37.109 12.446 34.08 11.576 30.109 10.672 C29.446 10.522 28.782 10.373 28.099 10.218 C26.696 9.9 25.294 9.577 23.893 9.25 C21.774 8.755 19.651 8.277 17.527 7.801 C10.839 6.279 4.343 4.662 -2 2 C-1.34 1.34 -0.68 0.68 0 0 Z " fill="#161692" transform="translate(271,259)"/>
<path d="M0 0 C3.009 4.513 4.292 9.553 5.941 14.695 C6.555 16.6 7.182 18.501 7.811 20.402 C9.935 26.989 11.572 33.085 12 40 C11.01 40 10.02 40 9 40 C5.866 32.015 3.995 23.88 2.25 15.5 C2.027 14.437 1.805 13.374 1.575 12.279 C0.719 8.068 0 4.315 0 0 Z " fill="#161692" transform="translate(241,200)"/>
<path d="M0 0 C5.333 7.999 6.75 18.858 8.812 28.125 C9.044 29.145 9.275 30.165 9.513 31.216 C9.721 32.178 9.93 33.141 10.145 34.133 C10.334 34.998 10.523 35.863 10.718 36.754 C11 39 11 39 10 42 C8.583 37.754 7.177 33.504 5.782 29.25 C5.307 27.807 4.829 26.365 4.348 24.924 C-0.743 9.671 -0.743 9.671 -1 2 C-0.67 1.34 -0.34 0.68 0 0 Z " fill="#121290" transform="translate(260,269)"/>
<path d="M0 0 C5.57 1.65 10.631 4.104 15.812 6.688 C16.702 7.13 17.591 7.573 18.507 8.029 C24.526 11.091 30.032 14.369 35 19 C34.67 19.66 34.34 20.32 34 21 C25.57 17.034 17.436 12.882 9.688 7.688 C9.06 7.267 8.433 6.847 7.787 6.415 C4.954 4.475 2.298 2.564 0 0 Z " fill="#181893" transform="translate(211,230)"/>
<path d="M0 0 C3.721 3.37 6.202 7.14 8.812 11.375 C9.246 12.072 9.68 12.77 10.126 13.488 C14.188 20.122 17.682 26.968 21 34 C20.01 34 19.02 34 18 34 C12.387 27.804 8.695 19.955 5.062 12.5 C4.569 11.513 4.076 10.525 3.568 9.508 C0 2.282 0 2.282 0 0 Z " fill="#181893" transform="translate(230,211)"/>
<path d="M0 0 C7.285 2.428 11.304 13.096 14.574 19.602 C15.045 20.558 15.515 21.515 16 22.5 C16.501 23.487 17.003 24.475 17.52 25.492 C17.987 26.433 18.455 27.374 18.938 28.344 C19.359 29.191 19.781 30.039 20.215 30.912 C20.603 31.946 20.603 31.946 21 33 C20.67 33.66 20.34 34.32 20 35 C17.587 31.428 15.198 27.84 12.812 24.25 C12.139 23.254 11.465 22.257 10.771 21.23 C6.273 14.428 2.852 7.64 0 0 Z " fill="#161692" transform="translate(261,266)"/>
<path d="M0 0 C0.66 0.33 1.32 0.66 2 1 C-1.966 9.43 -6.118 17.564 -11.312 25.312 C-11.733 25.94 -12.153 26.567 -12.585 27.213 C-14.525 30.046 -16.436 32.702 -19 35 C-17.35 29.43 -14.896 24.369 -12.312 19.188 C-11.87 18.298 -11.427 17.409 -10.971 16.493 C-7.909 10.474 -4.631 4.968 0 0 Z " fill="#161692" transform="translate(249,266)"/>
<path d="M0 0 C10.046 3.808 18.559 8.658 27.324 14.829 C29.854 16.597 32.426 18.297 35 20 C34.01 20.495 34.01 20.495 33 21 C29.013 19.472 25.247 17.424 21.438 15.5 C20.377 14.982 19.317 14.464 18.225 13.93 C11.678 10.65 5.277 7.162 0 2 C0 1.34 0 0.68 0 0 Z " fill="#161692" transform="translate(266,261)"/>
<path d="M0 0 C0 0.99 0 1.98 0 3 C-6.199 8.609 -14.057 12.338 -21.5 16 C-22.981 16.752 -22.981 16.752 -24.492 17.52 C-25.904 18.221 -25.904 18.221 -27.344 18.938 C-28.615 19.57 -28.615 19.57 -29.912 20.215 C-30.946 20.603 -30.946 20.603 -32 21 C-32.66 20.67 -33.32 20.34 -34 20 C-30.404 17.591 -26.797 15.2 -23.188 12.812 C-22.183 12.139 -21.178 11.465 -20.143 10.771 C-13.661 6.499 -7.174 2.971 0 0 Z " fill="#161692" transform="translate(245,261)"/>
<path d="M0 0 C0.66 0.33 1.32 0.66 2 1 C-1.572 3.413 -5.16 5.802 -8.75 8.188 C-9.746 8.861 -10.743 9.535 -11.77 10.229 C-18.572 14.727 -25.36 18.148 -33 21 C-30.572 13.715 -19.904 9.696 -13.398 6.426 C-12.442 5.955 -11.485 5.485 -10.5 5 C-9.513 4.499 -8.525 3.997 -7.508 3.48 C-6.567 3.013 -5.626 2.545 -4.656 2.062 C-3.809 1.641 -2.961 1.219 -2.088 0.785 C-1.399 0.526 -0.71 0.267 0 0 Z " fill="#161692" transform="translate(299,230)"/>
<path d="M0 0 C0.33 0.66 0.66 1.32 1 2 C-0.528 5.987 -2.576 9.753 -4.5 13.562 C-5.018 14.623 -5.536 15.683 -6.07 16.775 C-9.418 23.459 -13.155 29.304 -18 35 C-18.66 34.67 -19.32 34.34 -20 34 C-14.828 23.005 -8.951 12.961 -2 3 C-1.34 2.01 -0.68 1.02 0 0 Z " fill="#161692" transform="translate(281,211)"/>
<path d="M0 0 C3.058 1.377 5.274 2.974 7.715 5.266 C8.744 6.23 8.744 6.23 9.795 7.215 C10.502 7.886 11.209 8.558 11.938 9.25 C12.641 9.906 13.344 10.562 14.068 11.238 C18.011 14.955 21.729 18.673 25 23 C25 23.66 25 24.32 25 25 C17.302 21.429 11.72 14.785 6 8.688 C5.412 8.065 4.823 7.442 4.217 6.8 C0 2.242 0 2.242 0 0 Z " fill="#11118F" transform="translate(222,222)"/>
<path d="M0 0 C8.032 4.467 19.022 14.066 22 23 C17.15 20.817 13.766 17.303 9.938 13.688 C9.218 13.023 8.498 12.358 7.756 11.674 C4.232 8.365 1.182 5.389 -1 1 C-0.67 0.67 -0.34 0.34 0 0 Z " fill="#141491" transform="translate(268,267)"/>
<path d="M0 0 C0.33 0.66 0.66 1.32 1 2 C-2.08 2.702 -5.165 3.384 -8.25 4.062 C-9.559 4.361 -9.559 4.361 -10.895 4.666 C-12.161 4.942 -12.161 4.942 -13.453 5.223 C-14.228 5.395 -15.003 5.568 -15.802 5.746 C-18.152 6.018 -19.762 5.716 -22 5 C-18.9 3.965 -15.795 2.949 -12.688 1.938 C-11.806 1.643 -10.925 1.348 -10.018 1.045 C-9.17 0.771 -8.322 0.497 -7.449 0.215 C-6.669 -0.042 -5.889 -0.298 -5.085 -0.563 C-3 -1 -3 -1 0 0 Z " fill="#4242A7" transform="translate(222,265)"/>
<path d="M0 0 C1.015 3.175 0.945 5.309 0.223 8.547 C0.039 9.391 -0.145 10.236 -0.334 11.105 C-0.533 11.978 -0.732 12.851 -0.938 13.75 C-1.133 14.638 -1.328 15.526 -1.529 16.441 C-2.012 18.629 -2.502 20.815 -3 23 C-3.99 22.67 -4.98 22.34 -6 22 C-4.475 14.504 -2.32 7.286 0 0 Z " fill="#4242A7" transform="translate(270,200)"/>
<path d="M0 0 C2.337 3.506 3.412 7.076 4.625 11.062 C4.854 11.795 5.084 12.528 5.32 13.283 C7 18.727 7 18.727 7 21 C6.34 21 5.68 21 5 21 C4.67 21.66 4.34 22.32 4 23 C3.327 19.918 2.663 16.834 2 13.75 C1.809 12.877 1.618 12.005 1.422 11.105 C1.241 10.261 1.061 9.417 0.875 8.547 C0.707 7.772 0.54 6.997 0.367 6.198 C0 4 0 4 0 0 Z " fill="#4444A7" transform="translate(241,200)"/>
<path d="M0 0 C6.499 0.516 12.662 1.467 19 3 C18.01 3.495 18.01 3.495 17 4 C17 4.66 17 5.32 17 6 C5.478 2.925 5.478 2.925 0 1 C0 0.67 0 0.34 0 0 Z " fill="#3838A2" transform="translate(204,242)"/>
<path d="M0 0 C6.824 1.234 13.394 2.892 20 5 C15.602 6.373 12.075 5.243 7.75 4.062 C7.005 3.867 6.26 3.672 5.492 3.471 C3.659 2.989 1.829 2.496 0 2 C0 1.34 0 0.68 0 0 Z " fill="#4545A8" transform="translate(292,265)"/>
<path d="M0 0 C0.66 0 1.32 0 2 0 C2.698 2.602 3.383 5.206 4.062 7.812 C4.262 8.55 4.461 9.288 4.666 10.049 C6.113 15.66 6.113 15.66 5 19 C4.161 16.397 3.329 13.793 2.5 11.188 C2.142 10.081 2.142 10.081 1.777 8.951 C0.801 5.867 0 3.255 0 0 Z " fill="#4141A6" transform="translate(265,292)"/>
<path d="M0 0 C2.475 0.99 2.475 0.99 5 2 C4.67 2.99 4.34 3.98 4 5 C2 3.625 2 3.625 0 2 C0 1.34 0 0.68 0 0 Z M-2 2 C-1.34 2 -0.68 2 0 2 C1.508 3.969 1.508 3.969 3.125 6.5 C3.664 7.335 4.203 8.171 4.758 9.031 C5.168 9.681 5.578 10.331 6 11 C2.472 10.4 2.094 10.123 -0.25 7.062 C-2 4 -2 4 -2 2 Z " fill="#E7E7F3" transform="translate(265,263)"/>
<path d="M0 0 C1.39 4.171 -0.098 7.182 -1.438 11.188 C-1.68 11.937 -1.923 12.687 -2.174 13.459 C-2.775 15.309 -3.386 17.155 -4 19 C-5.286 15.141 -4.551 12.893 -3.688 8.938 C-3.423 7.688 -3.159 6.439 -2.887 5.152 C-2 2 -2 2 0 0 Z " fill="#4343A7" transform="translate(246,292)"/>
<path d="M0 0 C0.66 0 1.32 0 2 0 C1.546 1.585 1.087 3.168 0.625 4.75 C0.37 5.632 0.115 6.513 -0.148 7.422 C-0.921 9.761 -1.836 11.834 -3 14 C-3.66 13.67 -4.32 13.34 -5 13 C-4.546 11.582 -4.086 10.166 -3.625 8.75 C-3.242 7.567 -3.242 7.567 -2.852 6.359 C-2.048 4.134 -1.103 2.091 0 0 Z " fill="#DCDCEE" transform="translate(250,267)"/>
<path d="M0 0 C2 1 2 1 3 3 C1.043 3.67 -0.916 4.336 -2.875 5 C-3.966 5.371 -5.056 5.743 -6.18 6.125 C-9 7 -9 7 -11 7 C-11 6.34 -11 5.68 -11 5 C-9.213 4.136 -7.42 3.284 -5.625 2.438 C-4.627 1.962 -3.63 1.486 -2.602 0.996 C-1.743 0.667 -0.885 0.339 0 0 Z " fill="#DCDCEE" transform="translate(278,245)"/>
<path d="M0 0 C0 0.66 0 1.32 0 2 C-1.626 3.382 -3.293 4.719 -5 6 C-5.66 5.67 -6.32 5.34 -7 5 C-2.25 0 -2.25 0 0 0 Z M0 2 C0.66 2 1.32 2 2 2 C0.523 6.677 0.523 6.677 -2.125 8.312 C-3.053 8.653 -3.053 8.653 -4 9 C-2.796 6.506 -1.546 4.319 0 2 Z " fill="#C9C9E6" transform="translate(247,263)"/>
<path d="M0 0 C0.66 0 1.32 0 2 0 C3.65 3.96 5.3 7.92 7 12 C6.34 12 5.68 12 5 12 C4.67 12.66 4.34 13.32 4 14 C3.33 12.043 2.664 10.084 2 8.125 C1.629 7.034 1.257 5.944 0.875 4.82 C0 2 0 2 0 0 Z " fill="#DADAED" transform="translate(260,267)"/>
<path d="M0 0 C1.585 0.454 3.168 0.913 4.75 1.375 C5.632 1.63 6.513 1.885 7.422 2.148 C9.761 2.921 11.834 3.836 14 5 C13.34 5 12.68 5 12 5 C11.67 5.66 11.34 6.32 11 7 C7.37 5.35 3.74 3.7 0 2 C0 1.34 0 0.68 0 0 Z " fill="#DADAED" transform="translate(267,260)"/>
<path d="M0 0 C1.459 0.477 2.917 0.957 4.375 1.438 C5.187 1.704 5.999 1.971 6.836 2.246 C9 3 9 3 11 4 C11 4.66 11 5.32 11 6 C6.391 5.28 2.328 3.687 -2 2 C-1.34 1.34 -0.68 0.68 0 0 Z " fill="#DEDEEF" transform="translate(234,246)"/>
<path d="M0 0 C2.705 4.058 5 8.049 5 13 C4.34 13 3.68 13 3 13 C2.298 11.59 1.614 10.172 0.938 8.75 C0.555 7.961 0.172 7.172 -0.223 6.359 C-1.086 3.74 -0.93 2.551 0 0 Z " fill="#DADAED" transform="translate(247,232)"/>
<path d="M0 0 C0 0.66 0 1.32 0 2 C-1.454 2.697 -2.913 3.382 -4.375 4.062 C-5.187 4.445 -5.999 4.828 -6.836 5.223 C-7.55 5.479 -8.264 5.736 -9 6 C-9.66 5.67 -10.32 5.34 -11 5 C-7.924 1.438 -4.702 0 0 0 Z " fill="#D7D7EC" transform="translate(245,260)"/>
<path d="M0 0 C0.33 0.66 0.66 1.32 1 2 C0.223 4.164 0.223 4.164 -0.938 6.625 C-1.318 7.442 -1.698 8.26 -2.09 9.102 C-2.39 9.728 -2.691 10.355 -3 11 C-3.66 11 -4.32 11 -5 11 C-4.551 9.352 -4.091 7.706 -3.625 6.062 C-3.37 5.146 -3.115 4.229 -2.852 3.285 C-2 1 -2 1 0 0 Z " fill="#DBDBEE" transform="translate(265,234)"/>
<path d="M0 0 C0.66 0 1.32 0 2 0 C2.125 6.75 2.125 6.75 1 9 C0.34 9 -0.32 9 -1 9 C-0.67 6.03 -0.34 3.06 0 0 Z " fill="#D4D4EB" transform="translate(253,268)"/>
<path d="M0 0 C0 0.66 0 1.32 0 2 C-2.957 3.478 -5.742 3.06 -9 3 C-9 2.34 -9 1.68 -9 1 C-5.847 0.299 -3.273 0 0 0 Z " fill="#D4D4EB" transform="translate(277,252)"/>
<path d="M0 0 C2.993 1.098 3.846 1.677 5.25 4.625 C5.498 5.409 5.745 6.192 6 7 C5.34 7 4.68 7 4 7 C2.02 3.535 2.02 3.535 0 0 Z " fill="#D3D3EA" transform="translate(243,240)"/>
<path d="M0 0 C2.622 1.049 3.794 1.649 5.25 4.125 C5.498 4.744 5.745 5.363 6 6 C3.378 4.951 2.206 4.351 0.75 1.875 C0.502 1.256 0.255 0.637 0 0 Z " fill="#242499" transform="translate(222,222)"/>
<path d="M0 0 C0 3 0 3 -2 6 C-2.66 6 -3.32 6 -4 6 C-2.25 1.125 -2.25 1.125 0 0 Z " fill="#CECEE8" transform="translate(267,241)"/>
<path d="M0 0 C3.125 -0.188 3.125 -0.188 6 0 C5.67 0.66 5.34 1.32 5 2 C2.678 2.407 0.343 2.744 -2 3 C-1.34 2.01 -0.68 1.02 0 0 Z " fill="#1D1D95" transform="translate(294,244)"/>
<path d="M0 0 C2.475 0.99 2.475 0.99 5 2 C4.67 2.99 4.34 3.98 4 5 C2 3.625 2 3.625 0 2 C0 1.34 0 0.68 0 0 Z M-2 2 C0 3 0 3 0 3 Z " fill="#C7C7E5" transform="translate(265,263)"/>
<path d="M0 0 C2.5 1.312 2.5 1.312 5 3 C5 3.99 5 4.98 5 6 C3.293 4.719 1.626 3.382 0 2 C0 1.34 0 0.68 0 0 Z " fill="#E8E8F4" transform="translate(240,243)"/>
<path d="M0 0 C0.66 0.33 1.32 0.66 2 1 C0.35 2.65 -1.3 4.3 -3 6 C-3 3 -3 3 -1.5 1.312 C-0.757 0.663 -0.757 0.663 0 0 Z " fill="#DCDCEE" transform="translate(247,266)"/>
<path d="M0 0 C0.66 0.33 1.32 0.66 2 1 C0.68 2.32 -0.64 3.64 -2 5 C-2 2 -2 2 0 0 Z " fill="#E5E5F3" transform="translate(269,244)"/>
<path d="M0 0 C1.98 0.99 1.98 0.99 4 2 C3.67 2.99 3.34 3.98 3 5 C1.5 3.625 1.5 3.625 0 2 C0 1.34 0 0.68 0 0 Z " fill="#E7E7F3" transform="translate(270,266)"/>
<path d="M0 0 C3.875 1.75 3.875 1.75 5 4 C3.062 3.688 3.062 3.688 1 3 C0.67 2.01 0.34 1.02 0 0 Z " fill="#E0E0F0" transform="translate(263,266)"/>
<path d="M0 0 C1.98 0.495 1.98 0.495 4 1 C4 1.66 4 2.32 4 3 C2.35 2.67 0.7 2.34 -1 2 C-0.67 1.34 -0.34 0.68 0 0 Z " fill="#D3D3EA" transform="translate(241,249)"/>
<path d="M0 0 C1.485 0.99 1.485 0.99 3 2 C3 2.66 3 3.32 3 4 C1.68 3.34 0.36 2.68 -1 2 C-0.67 1.34 -0.34 0.68 0 0 Z " fill="#9C9CD0" transform="translate(292,291)"/>
<path d="M0 0 C0.66 0.66 1.32 1.32 2 2 C0.02 2.99 0.02 2.99 -2 4 C-1.34 2.68 -0.68 1.36 0 0 Z " fill="#9C9CD0" transform="translate(219,291)"/>
<path d="M0 0 C0.66 0 1.32 0 2 0 C1.34 1.32 0.68 2.64 0 4 C-0.66 3.34 -1.32 2.68 -2 2 C-1.34 1.34 -0.68 0.68 0 0 Z " fill="#9C9CD0" transform="translate(293,217)"/>
<path d="M0 0 C1.98 0.99 1.98 0.99 4 2 C3.34 2.66 2.68 3.32 2 4 C1.34 2.68 0.68 1.36 0 0 Z " fill="#9C9CD0" transform="translate(217,217)"/>
</svg>