
<!-- Generator: visioncortex VTracer 0.6.4 -->
<svg version="1.1" xmlns="http://www.w3.org/2000/svg" viewBox="0 0 512 512" preserveAspectRatio="xMidYMid meet">
<path d="M0 0 C1.018 0.002 2.036 0.004 3.086 0.007 C17.707 0.056 32.006 0.362 46.375 3.312 C47.894 3.611 47.894 3.611 49.443 3.915 C95.285 13.082 139.738 34.105 173.645 66.699 C175.955 68.91 178.307 71.001 180.75 73.062 C183.993 75.872 186.785 78.908 189.551 82.184 C190.784 83.623 192.054 85.032 193.355 86.41 C223.714 118.649 242.966 161.606 252.125 204.5 C252.423 205.887 252.423 205.887 252.728 207.302 C256.019 223.509 256.75 239.443 256.688 255.938 C256.685 256.956 256.683 257.974 256.681 259.023 C256.631 273.645 256.326 287.944 253.375 302.312 C253.077 303.831 253.077 303.831 252.773 305.381 C243.606 351.223 222.582 395.676 189.988 429.582 C187.777 431.892 185.686 434.245 183.625 436.688 C180.816 439.93 177.78 442.722 174.504 445.488 C173.064 446.722 171.656 447.992 170.277 449.293 C138.038 479.652 95.081 498.903 52.188 508.062 C51.263 508.261 50.338 508.46 49.385 508.665 C33.178 511.957 17.245 512.688 0.75 512.625 C-0.777 512.622 -0.777 512.622 -2.336 512.618 C-16.957 512.569 -31.256 512.263 -45.625 509.312 C-46.638 509.114 -47.65 508.915 -48.693 508.71 C-94.535 499.543 -138.988 478.52 -172.895 445.926 C-175.205 443.715 -177.557 441.624 -180 439.562 C-183.243 436.753 -186.035 433.717 -188.801 430.441 C-190.034 429.002 -191.304 427.593 -192.605 426.215 C-222.964 393.976 -242.216 351.019 -251.375 308.125 C-251.574 307.2 -251.773 306.275 -251.978 305.323 C-255.269 289.116 -256 273.182 -255.938 256.688 C-255.935 255.669 -255.933 254.651 -255.931 253.602 C-255.881 238.98 -255.576 224.681 -252.625 210.312 C-252.426 209.3 -252.228 208.287 -252.023 207.244 C-242.856 161.402 -221.832 116.949 -189.238 83.043 C-187.027 80.733 -184.936 78.38 -182.875 75.938 C-180.066 72.695 -177.03 69.903 -173.754 67.137 C-172.314 65.903 -170.906 64.633 -169.527 63.332 C-137.288 32.973 -94.331 13.722 -51.438 4.562 C-50.513 4.364 -49.588 4.165 -48.635 3.96 C-32.428 0.668 -16.495 -0.063 0 0 Z " fill="#FFFFFF" transform="translate(255.625,-0.3125)"/>
<path d="M0 0 C16.774 6.709 32.346 19.965 45.27 32.387 C47.58 34.598 49.932 36.689 52.375 38.75 C55.618 41.559 58.41 44.595 61.176 47.871 C62.409 49.311 63.679 50.719 64.98 52.098 C95.339 84.337 114.591 127.294 123.75 170.188 C123.949 171.112 124.148 172.037 124.353 172.99 C127.644 189.197 128.375 205.13 128.312 221.625 C128.309 223.152 128.309 223.152 128.306 224.711 C128.256 239.332 127.951 253.631 125 268 C124.801 269.013 124.603 270.025 124.398 271.068 C115.231 316.91 94.207 361.363 61.613 395.27 C59.402 397.58 57.311 399.932 55.25 402.375 C52.441 405.618 49.405 408.41 46.129 411.176 C44.689 412.409 43.281 413.679 41.902 414.98 C31.621 424.662 19.822 432.635 8 440.312 C7.419 440.691 6.838 441.07 6.239 441.461 C2.25 444 2.25 444 0 444 C0 297.48 0 150.96 0 0 Z " fill="#CE2B37" transform="translate(384,34)"/>
<path d="M0 0 C0 146.52 0 293.04 0 444 C-16.774 437.291 -32.346 424.035 -45.27 411.613 C-47.58 409.402 -49.932 407.311 -52.375 405.25 C-55.618 402.441 -58.41 399.405 -61.176 396.129 C-62.409 394.689 -63.679 393.281 -64.98 391.902 C-95.339 359.663 -114.591 316.706 -123.75 273.812 C-123.949 272.888 -124.148 271.963 -124.353 271.01 C-127.644 254.803 -128.375 238.87 -128.312 222.375 C-128.31 221.357 -128.308 220.339 -128.306 219.289 C-128.256 204.668 -127.951 190.369 -125 176 C-124.801 174.987 -124.603 173.975 -124.398 172.932 C-115.231 127.09 -94.207 82.637 -61.613 48.73 C-59.402 46.42 -57.311 44.068 -55.25 41.625 C-52.441 38.382 -49.405 35.59 -46.129 32.824 C-44.689 31.591 -43.281 30.321 -41.902 29.02 C-31.621 19.338 -19.822 11.365 -8 3.688 C-7.419 3.309 -6.838 2.93 -6.239 2.539 C-2.25 0 -2.25 0 0 0 Z " fill="#009246" transform="translate(128,34)"/>
</svg>