
<!-- Generator: visioncortex VTracer 0.6.4 -->
<svg version="1.1" xmlns="http://www.w3.org/2000/svg" viewBox="0 0 512 512" preserveAspectRatio="xMidYMid meet">
<path d="M0 0 C1.018 0.002 2.036 0.004 3.086 0.007 C17.707 0.056 32.006 0.362 46.375 3.312 C47.894 3.611 47.894 3.611 49.443 3.915 C95.285 13.082 139.738 34.105 173.645 66.699 C175.955 68.91 178.307 71.001 180.75 73.062 C183.993 75.872 186.785 78.908 189.551 82.184 C190.784 83.623 192.054 85.032 193.355 86.41 C223.714 118.649 242.966 161.606 252.125 204.5 C252.423 205.887 252.423 205.887 252.728 207.302 C256.019 223.509 256.75 239.443 256.688 255.938 C256.685 256.956 256.683 257.974 256.681 259.023 C256.631 273.645 256.326 287.944 253.375 302.312 C253.077 303.831 253.077 303.831 252.773 305.381 C243.606 351.223 222.582 395.676 189.988 429.582 C187.777 431.892 185.686 434.245 183.625 436.688 C180.816 439.93 177.78 442.722 174.504 445.488 C173.064 446.722 171.656 447.992 170.277 449.293 C138.038 479.652 95.081 498.903 52.188 508.062 C51.263 508.261 50.338 508.46 49.385 508.665 C33.178 511.957 17.245 512.688 0.75 512.625 C-0.777 512.622 -0.777 512.622 -2.336 512.618 C-16.957 512.569 -31.256 512.263 -45.625 509.312 C-46.638 509.114 -47.65 508.915 -48.693 508.71 C-94.535 499.543 -138.988 478.52 -172.895 445.926 C-175.205 443.715 -177.557 441.624 -180 439.562 C-183.243 436.753 -186.035 433.717 -188.801 430.441 C-190.034 429.002 -191.304 427.593 -192.605 426.215 C-222.964 393.976 -242.216 351.019 -251.375 308.125 C-251.574 307.2 -251.773 306.275 -251.978 305.323 C-255.269 289.116 -256 273.182 -255.938 256.688 C-255.935 255.669 -255.933 254.651 -255.931 253.602 C-255.881 238.98 -255.576 224.681 -252.625 210.312 C-252.426 209.3 -252.228 208.287 -252.023 207.244 C-242.856 161.402 -221.832 116.949 -189.238 83.043 C-187.027 80.733 -184.936 78.38 -182.875 75.938 C-180.066 72.695 -177.03 69.903 -173.754 67.137 C-172.314 65.903 -170.906 64.633 -169.527 63.332 C-137.288 32.973 -94.331 13.722 -51.438 4.562 C-50.513 4.364 -49.588 4.165 -48.635 3.96 C-32.428 0.668 -16.495 -0.063 0 0 Z " fill="#006C35" transform="translate(255.625,-0.3125)"/>
<path d="M0 0 C2.582 0.91 2.582 0.91 4.277 3.316 C8.578 12.622 11.801 20.413 12.273 30.723 C12.426 31.805 12.426 31.805 12.582 32.91 C13.242 33.24 13.902 33.57 14.582 33.91 C14.831 33.312 15.08 32.714 15.336 32.098 C19.341 25.066 29.236 22.02 36.582 19.91 C38.941 19.424 41.179 19.124 43.582 18.91 C43.585 18.197 43.587 17.484 43.59 16.75 C43.835 10.685 44.439 6.534 48.844 2.16 C51.792 0.04 53.994 -0.216 57.582 -0.09 C61.638 1.262 64.89 2.541 67.582 5.91 C68.832 10.506 68.973 14.692 67.52 19.223 C63.041 25.435 57.995 28.34 50.582 29.91 C47.855 30.118 45.323 30.06 42.582 29.91 C42.582 30.57 42.582 31.23 42.582 31.91 C55.122 31.91 67.662 31.91 80.582 31.91 C80.582 36.395 79.392 38.856 77.582 42.91 C77.225 44.237 76.885 45.57 76.582 46.91 C65.972 49.286 55.545 51.348 44.707 52.32 C41.651 52.695 41.651 52.695 39.645 54.156 C38.15 56.281 38.15 56.281 38.582 60.91 C44.027 63.88 44.027 63.88 49.582 66.91 C48.582 72.91 48.582 72.91 47.582 73.91 C35.714 75.074 23.704 70.347 14.582 62.91 C10.582 58.402 10.582 58.402 10.582 55.91 C6.905 57.91 4.513 59.912 1.895 63.16 C-4.037 70.032 -12.296 76.874 -21.566 78.223 C-27.243 78.533 -31.83 77.328 -36.418 73.91 C-38.092 71.976 -39.183 70.175 -40.418 67.91 C-44.879 68.507 -48.688 69.662 -52.855 71.348 C-59.971 74.142 -65.642 76.228 -73.418 75.91 C-69.65 70.829 -65.854 68.019 -60.355 64.973 C-59.608 64.54 -58.86 64.108 -58.089 63.662 C-54.697 61.707 -51.293 59.822 -47.777 58.098 C-42.095 55.187 -39.036 53.353 -36.918 47.16 C-36.701 46.237 -36.485 45.314 -36.262 44.363 C-35.247 41.413 -34.034 40.518 -31.418 38.91 C-31.748 41.88 -32.078 44.85 -32.418 47.91 C-30.332 46.33 -28.249 44.747 -26.168 43.16 C-25.581 42.717 -24.995 42.273 -24.391 41.816 C-19.606 38.188 -19.606 38.188 -15.418 33.91 C-14.797 29.098 -14.829 26.982 -17.168 22.723 C-18.608 20.923 -20.105 19.166 -21.668 17.473 C-24.011 14.042 -24.01 11.983 -23.418 7.91 C-21.47 5.096 -20.314 4.117 -16.98 3.348 C-12.382 4.357 -10.178 7.809 -7.605 11.535 C-6.418 13.91 -6.418 13.91 -6.418 16.91 C-7.903 17.405 -7.903 17.405 -9.418 17.91 C-8.923 18.838 -8.428 19.766 -7.918 20.723 C-5.576 26.258 -5.414 32.257 -7.004 38.043 C-11.4 48.006 -19.953 55.049 -29.418 59.91 C-28.923 62.385 -28.923 62.385 -28.418 64.91 C-22.463 65.708 -18.327 65.357 -13.293 61.91 C-7.198 57.169 -0.845 51.961 2.582 44.91 C4.12 32.56 0.618 22.789 -4.43 11.77 C-5.52 8.614 -5.681 6.226 -5.418 2.91 C-3.798 0.268 -3.109 -0.116 0 0 Z " fill="#F7FAF9" transform="translate(212.41796875,176.08984375)"/>
<path d="M0 0 C0.99 0.33 1.98 0.66 3 1 C3 1.66 3 2.32 3 3 C4.98 3.495 4.98 3.495 7 4 C6.67 5.65 6.34 7.3 6 9 C7.224 8.983 7.224 8.983 8.473 8.965 C11.803 8.939 15.13 8.947 18.46 8.979 C20.269 8.994 22.078 9.001 23.887 9.001 C26.968 9.012 30.045 9.065 33.125 9.125 C34.618 9.121 34.618 9.121 36.141 9.117 C43.082 9.307 43.082 9.307 45.753 11.323 C49.488 15.722 50.416 19.14 50.344 24.734 C50 27 50 27 47.875 30.062 C44.523 32.321 42.96 32.603 39 32 C38.01 31.34 37.02 30.68 36 30 C32.88 29.706 32.88 29.706 29.32 29.77 C28.346 29.77 28.346 29.77 27.351 29.771 C25.978 29.774 24.604 29.782 23.231 29.794 C21.14 29.812 19.049 29.815 16.957 29.814 C8.922 29.789 8.922 29.789 1 31 C-1.745 27.111 -2.156 24.704 -2 20 C-3.081 19.998 -4.161 19.995 -5.275 19.993 C-31.6 19.934 -57.925 19.858 -84.251 19.764 C-96.981 19.719 -109.712 19.68 -122.443 19.654 C-133.543 19.631 -144.642 19.597 -155.742 19.551 C-161.616 19.527 -167.49 19.509 -173.364 19.502 C-178.9 19.496 -184.436 19.476 -189.972 19.446 C-191.997 19.437 -194.022 19.433 -196.047 19.435 C-225.243 19.453 -225.243 19.453 -236 10 C-236.66 9.01 -237.32 8.02 -238 7 C-237.211 7.013 -236.423 7.025 -235.61 7.038 C-224.636 7.209 -213.662 7.36 -202.688 7.5 C-201.756 7.512 -200.825 7.524 -199.866 7.536 C-156.557 8.08 -113.249 8.085 -69.938 8.062 C-69.097 8.062 -68.257 8.062 -67.391 8.061 C-45.594 8.05 -23.797 8.03 -2 8 C-2.292 6.819 -2.292 6.819 -2.59 5.613 C-2.725 4.751 -2.861 3.889 -3 3 C-1.562 1.188 -1.562 1.188 0 0 Z " fill="#FAFCFB" transform="translate(350,352)"/>
<path d="M0 0 C4.486 1.423 7.038 3.662 10.312 7 C11.196 7.887 12.079 8.774 12.988 9.688 C15 12 15 12 15 14 C14.34 14 13.68 14 13 14 C13.66 15.32 14.32 16.64 15 18 C14.948 16.428 14.948 16.428 14.895 14.824 C14.866 13.445 14.839 12.066 14.812 10.688 C14.787 9.997 14.762 9.307 14.736 8.596 C14.662 3.443 14.662 3.443 16.512 1.02 C17.248 0.515 17.248 0.515 18 0 C21.223 1.351 22.678 2.556 24.395 5.59 C24.792 6.292 25.19 6.994 25.6 7.717 C26 8.45 26.4 9.182 26.812 9.938 C27.232 10.666 27.652 11.395 28.084 12.146 C30.349 16.218 30.349 16.218 31 18 C30.505 19.485 30.505 19.485 30 21 C29.34 21 28.68 21 28 21 C27.181 29.968 28.252 35.064 34 42 C35.004 43.33 36.006 44.662 37 46 C36.614 37.769 35.089 29.83 33.372 21.79 C32.17 15.905 31.291 10.01 32 4 C33.812 1.375 33.812 1.375 36 0 C36.99 0 37.98 0 39 0 C46.852 14.412 46.852 14.412 47 23 C46.01 23 45.02 23 44 23 C44.211 24.056 44.211 24.056 44.427 25.133 C45.082 28.421 45.729 31.71 46.375 35 C46.613 36.191 46.85 37.382 47.095 38.609 C48.343 45.009 49.237 51.185 49.625 57.688 C50.547 66.399 55.274 71.856 60.672 78.387 C64.97 83.607 66.591 87.104 66.25 93.875 C66.232 94.563 66.214 95.252 66.195 95.961 C66.149 97.641 66.077 99.321 66 101 C62.614 99.871 62.314 99.376 60.52 96.473 C60.078 95.763 59.637 95.053 59.182 94.322 C58.73 93.577 58.278 92.831 57.812 92.062 C57.349 91.321 56.886 90.579 56.408 89.814 C53 84.278 53 84.278 53 82 C52.34 82 51.68 82 51 82 C51.046 82.869 51.093 83.738 51.141 84.633 C51.5 96.114 51.5 96.114 47 101 C46.464 101.619 45.928 102.238 45.375 102.875 C44 104 44 104 42 104 C41.97 102.609 41.97 102.609 41.94 101.189 C41.861 97.715 41.775 94.241 41.683 90.768 C41.645 89.27 41.61 87.773 41.578 86.275 C41.532 84.11 41.474 81.946 41.414 79.781 C41.383 78.483 41.351 77.184 41.319 75.846 C40.622 67.445 38.479 62.478 33 56 C32.996 57.296 32.992 58.592 32.988 59.928 C32.966 64.757 32.911 69.586 32.847 74.414 C32.824 76.5 32.81 78.587 32.804 80.673 C32.795 83.68 32.754 86.685 32.707 89.691 C32.713 91.081 32.713 91.081 32.719 92.498 C32.575 98.929 31.279 102.159 27 107 C23.263 109.574 19.739 110.698 15.148 110.566 C11.465 109.595 8.956 107.145 6.176 104.629 C3.748 102.812 1.979 102.37 -1 102 C-1.254 102.713 -1.508 103.426 -1.77 104.16 C-7.82 120.998 -7.82 120.998 -11 123 C-14.862 123.601 -16.669 123.179 -20.125 121.312 C-25.624 116.89 -29.453 111.653 -30.289 104.539 C-30.464 99.249 -29.897 95.586 -27 91 C-26.67 91 -26.34 91 -26 91 C-25.876 92.949 -25.876 92.949 -25.75 94.938 C-25.267 99.49 -23.862 103.072 -21.84 107.152 C-21 109 -21 109 -21 111 C-18.69 111 -16.38 111 -14 111 C-13.469 109.915 -12.938 108.829 -12.391 107.711 C-11.677 106.266 -10.964 104.82 -10.25 103.375 C-9.902 102.662 -9.554 101.949 -9.195 101.215 C-3.708 90.139 -3.708 90.139 1 87 C3.473 87.09 3.473 87.09 6 88 C7.809 90.066 7.809 90.066 9.438 92.562 C12.039 96.403 12.039 96.403 16.438 97.562 C17.283 97.377 18.129 97.191 19 97 C23.772 86.063 22.379 74.015 21.223 62.402 C20.713 54.62 20.931 46.795 21 39 C20.34 39 19.68 39 19 39 C17.406 37.234 17.406 37.234 15.5 34.75 C11.479 29.587 7.317 24.571 3.102 19.566 C-0.332 15.374 -1.259 13.319 -1.188 7.938 C-1.181 6.874 -1.175 5.811 -1.168 4.715 C-1 2 -1 2 0 0 Z " fill="#F8FBF9" transform="translate(372,131)"/>
<path d="M0 0 C1.526 2.268 2.634 4.233 3.75 6.688 C4.204 7.607 4.204 7.607 4.668 8.545 C6.478 12.338 7.513 15.832 8 20 C6.02 20 4.04 20 2 20 C2.445 21.854 2.445 21.854 2.898 23.746 C4.171 29.474 4.905 35.243 5.625 41.062 C5.826 42.647 5.826 42.647 6.031 44.264 C6.358 46.842 6.681 49.421 7 52 C8.98 52 10.96 52 13 52 C13.99 54.97 13.99 54.97 15 58 C17.709 57.845 19.466 57.518 21.445 55.598 C22.677 54.102 23.843 52.554 25 51 C26.875 51.25 26.875 51.25 29 52 C30.25 54.062 30.25 54.062 31 56 C31.99 56 32.98 56 34 56 C33.938 55.216 33.876 54.433 33.812 53.625 C33.905 52.326 33.905 52.326 34 51 C37 49 37 49 41 49 C40.168 61.302 40.168 61.302 38 66 C34.291 68.473 31.298 68.342 27 68 C26.319 67.752 25.639 67.505 24.938 67.25 C21.969 66.867 20.302 68.613 17.879 70.137 C14.774 71.563 12.199 70.832 9 70 C8.67 69.67 8.34 69.34 8 69 C8.046 70.172 8.093 71.344 8.141 72.551 C8.396 81.743 8.377 89.652 4 98 C3.673 98.639 3.345 99.279 3.008 99.938 C-2.779 109.399 -13.928 114.491 -24 118 C-24.697 118.246 -25.395 118.492 -26.113 118.746 C-33.862 121.072 -42.12 121.274 -49.5 117.812 C-53.192 115.718 -55.742 113.669 -58 110 C-58.354 109.464 -58.709 108.928 -59.074 108.375 C-60.456 104.83 -60.329 101.312 -60.312 97.562 C-60.329 96.812 -60.345 96.061 -60.361 95.287 C-60.365 90.673 -59.873 87.813 -57 84 C-56.01 84.33 -55.02 84.66 -54 85 C-53.841 86.097 -53.683 87.194 -53.52 88.324 C-53.285 89.779 -53.049 91.233 -52.812 92.688 C-52.711 93.409 -52.61 94.13 -52.506 94.873 C-51.638 100.012 -50.255 102.681 -46 106 C-38.943 109.645 -31.185 108.615 -23.812 106.375 C-13.623 102.592 -7.485 96.493 -2.906 86.648 C-1.832 83.508 -1.34 80.473 -0.875 77.188 C-0.707 76.026 -0.54 74.865 -0.367 73.668 C-0.185 72.347 -0.185 72.347 0 71 C-0.99 71 -1.98 71 -3 71 C-3.075 71.583 -3.15 72.165 -3.227 72.766 C-4.844 82.85 -8.692 92.297 -16.953 98.664 C-24.367 103.503 -32.24 104.265 -41 103 C-46.182 100.641 -49.558 97.131 -52 92 C-52.363 88.441 -52.363 88.441 -52.312 84.562 C-52.309 83.285 -52.305 82.008 -52.301 80.691 C-52.011 77.132 -51.286 74.316 -50 71 C-48.68 71 -47.36 71 -46 71 C-44.613 73.774 -44.848 76.219 -44.75 79.312 C-44.434 83.581 -44.229 85.632 -41.938 89.312 C-38.077 91.53 -35.269 91.886 -31 91 C-25.366 89.119 -20.146 87.35 -16 83 C-15.34 83 -14.68 83 -14 83 C-12.037 79.495 -11.041 75.866 -10 72 C-10.508 72.289 -11.016 72.577 -11.539 72.875 C-19.137 76.973 -19.137 76.973 -24 76 C-26.976 73.995 -28.677 72.504 -29.449 68.91 C-29.779 62.25 -27.671 58.067 -23.312 53.062 C-19.55 51.334 -16.042 51.114 -12 52 C-9.898 53.428 -8.245 54.935 -6.508 56.785 C-6.01 57.186 -5.513 57.587 -5 58 C-4.01 57.67 -3.02 57.34 -2 57 C-1.833 51.023 -2.425 45.58 -3.531 39.715 C-3.687 38.855 -3.842 37.995 -4.002 37.109 C-4.495 34.384 -4.996 31.661 -5.5 28.938 C-6.003 26.211 -6.504 23.484 -6.998 20.755 C-7.304 19.065 -7.615 17.375 -7.933 15.687 C-8.767 11.076 -9.31 6.708 -9 2 C-6.176 -1.347 -4 -1.514 0 0 Z " fill="#F7FAF9" transform="translate(144,134)"/>
<path d="M0 0 C2.669 1.375 3.264 3.056 4.365 5.769 C5.808 10.513 6.17 15.46 6.688 20.375 C6.927 22.538 7.169 24.701 7.414 26.863 C7.515 27.814 7.617 28.764 7.721 29.743 C7.942 32.082 7.942 32.082 9.062 34.062 C10.053 34.392 11.042 34.722 12.062 35.062 C11.774 34.503 11.485 33.944 11.188 33.367 C7.754 25.951 7.398 19.162 8.062 11.062 C8.392 10.403 8.722 9.743 9.062 9.062 C12.146 9.363 13.62 9.531 15.645 11.961 C18.071 16.844 19.313 20.376 19 25.875 C18.745 29.571 18.745 29.571 20.203 32.832 C23.177 35.438 26.153 36.718 30.062 37.062 C29.061 31.13 27.699 26.989 24.062 22.062 C23.129 19.261 22.899 17.408 22.875 14.5 C22.861 13.715 22.847 12.93 22.832 12.121 C23.062 10.062 23.062 10.062 25.062 8.062 C28.97 8.149 30.771 8.836 33.875 11.25 C36.268 14.326 36.795 16.221 37.062 20.062 C36.072 20.062 35.082 20.062 34.062 20.062 C34.267 20.738 34.472 21.413 34.684 22.109 C34.953 23.001 35.222 23.893 35.5 24.812 C35.767 25.694 36.034 26.576 36.309 27.484 C37.685 32.19 38.498 36.098 38.062 41.062 C35.385 45.774 32.146 47.425 27.062 49.062 C20.977 49.681 20.977 49.681 17.938 47.625 C17.009 46.852 17.009 46.852 16.062 46.062 C13.413 45.348 13.413 45.348 11.062 45.062 C11.042 46.259 11.021 47.455 11 48.688 C10.988 49.36 10.977 50.033 10.965 50.727 C11.015 53.149 11.015 53.149 11.551 55.844 C12.976 64.805 13.379 74.909 9.062 83.062 C7.645 84.762 7.645 84.762 6.062 86.062 C5.072 86.062 4.083 86.062 3.062 86.062 C2.403 75.832 1.743 65.602 1.062 55.062 C-1.907 54.072 -4.877 53.083 -7.938 52.062 C-10.938 49.062 -10.938 49.062 -11.278 46.611 C-11.262 45.663 -11.247 44.715 -11.23 43.738 C-11.221 42.71 -11.211 41.682 -11.201 40.623 C-11.176 39.551 -11.151 38.479 -11.125 37.375 C-11.105 35.75 -11.105 35.75 -11.084 34.092 C-11.049 31.415 -10.999 28.739 -10.938 26.062 C-11.927 26.062 -12.918 26.062 -13.938 26.062 C-15.49 30.721 -15.278 35.514 -15.461 40.398 C-15.948 44.142 -16.624 46.115 -18.938 49.062 C-21.812 50.125 -21.812 50.125 -24.938 50.062 C-28.868 48.143 -30.328 45.737 -31.75 41.75 C-33.736 34.221 -34.275 24.564 -31.938 17.062 C-31.278 17.062 -30.618 17.062 -29.938 17.062 C-29.672 18.159 -29.406 19.256 -29.133 20.387 C-28.776 21.841 -28.419 23.296 -28.062 24.75 C-27.801 25.832 -27.801 25.832 -27.535 26.936 C-26.587 30.783 -25.533 34.42 -23.938 38.062 C-23.278 38.062 -22.618 38.062 -21.938 38.062 C-21.623 36.833 -21.308 35.603 -20.984 34.336 C-20.553 32.703 -20.12 31.07 -19.688 29.438 C-19.483 28.629 -19.278 27.821 -19.066 26.988 C-17.722 21.976 -16.255 18.094 -12.938 14.062 C-9.688 13.188 -9.688 13.188 -6.938 13.062 C-4.746 16.35 -4.651 17.547 -4.523 21.387 C-4.485 22.415 -4.446 23.443 -4.406 24.502 C-4.375 25.574 -4.344 26.646 -4.312 27.75 C-4.274 28.833 -4.235 29.917 -4.195 31.033 C-4.101 33.709 -4.015 36.386 -3.938 39.062 C-2.618 39.062 -1.297 39.062 0.062 39.062 C-0.412 35.624 -0.893 32.187 -1.375 28.75 C-1.51 27.774 -1.644 26.797 -1.783 25.791 C-1.915 24.853 -2.047 23.915 -2.184 22.949 C-2.304 22.085 -2.424 21.221 -2.549 20.331 C-2.905 17.907 -2.905 17.907 -3.938 15.062 C-4.057 12.877 -4.113 10.688 -4.125 8.5 C-4.139 7.344 -4.153 6.187 -4.168 4.996 C-3.913 1.752 -3.526 0.114 0 0 Z " fill="#F6FAF8" transform="translate(98.9375,132.9375)"/>
<path d="M0 0 C7.447 0 11.621 4.219 17 9 C17.33 9.33 17.66 9.66 18 10 C18.66 7.36 19.32 4.72 20 2 C21.32 1.67 22.64 1.34 24 1 C33.275 13.246 33.275 13.246 36 20 C35.59 22.223 35.59 22.223 35 24 C34.34 23.67 33.68 23.34 33 23 C34.111 35.091 35.875 43.341 43.562 53.062 C46.609 57.169 49.204 61.582 51.875 65.938 C52.434 66.838 52.994 67.739 53.57 68.667 C61.422 81.397 61.422 81.397 61.25 88.25 C61.235 89.286 61.219 90.323 61.203 91.391 C61 94 61 94 60 96 C59.34 96 58.68 96 58 96 C57.678 95.427 57.357 94.853 57.025 94.263 C55.522 91.589 54.011 88.92 52.5 86.25 C51.995 85.349 51.489 84.448 50.969 83.52 C46.957 76.45 42.581 69.713 38 63 C38.026 64.109 38.052 65.218 38.079 66.361 C38.17 70.506 38.227 74.651 38.275 78.796 C38.3 80.584 38.334 82.373 38.377 84.161 C38.438 86.743 38.466 89.324 38.488 91.906 C38.514 92.696 38.54 93.486 38.566 94.3 C38.569 100.193 36.993 104.576 33 109 C30.83 110.222 30.83 110.222 29 111 C28.98 109.994 28.96 108.989 28.94 107.953 C28.557 84.605 28.557 84.605 27.062 61.312 C26.988 60.492 26.913 59.671 26.836 58.826 C26.603 56.542 26.313 54.274 26 52 C25.906 51.18 25.813 50.36 25.716 49.514 C24.695 42.61 21.949 38.457 17.5 33.188 C16.877 32.413 16.254 31.638 15.613 30.84 C12.752 27.286 9.828 23.793 6.852 20.336 C-0.59 11.506 -0.59 11.506 -0.625 4.688 C-0.352 1.949 -0.352 1.949 0 0 Z " fill="#F8FBF9" transform="translate(268,130)"/>
<path d="M0 0 C3 1 3 1 4.656 3.977 C6.387 8.395 6.447 12.678 6.5 17.375 C6.576 24.134 7.526 29.684 10 36 C12.354 36.688 12.354 36.688 15 37 C15.99 36.34 16.98 35.68 18 35 C18.923 29.36 17.904 26.45 15 21.562 C12.104 16.622 10.644 12.695 12 7 C13.562 4.375 13.562 4.375 16 3 C19.438 2.812 19.438 2.812 23 4 C26.1 6.906 27.861 9.698 28.312 13.938 C28.209 14.618 28.106 15.299 28 16 C26.35 16 24.7 16 23 16 C23.809 18.647 24.622 21.293 25.438 23.938 C25.668 24.692 25.898 25.447 26.135 26.225 C27.03 29.902 27.03 29.902 29 33 C33.461 33.311 36.837 32.586 41 31 C40.59 36.223 39.868 39.347 36 43 C33.25 43.812 33.25 43.812 31 44 C31 42.02 31 40.04 31 38 C27.47 39.177 27.213 39.884 25.438 43 C23.203 46.899 23.203 46.899 21 48 C11.633 49.192 11.633 49.192 8.164 46.66 C6.812 45 6.812 45 5 42 C0.258 42.287 -2.107 44.543 -5.449 47.625 C-8.375 50.219 -11.028 50.397 -14.898 50.348 C-18.722 49.715 -20.378 47.809 -23 45 C-24.962 41.128 -25.22 37.997 -25.125 33.688 C-25.107 32.619 -25.089 31.55 -25.07 30.449 C-25.047 29.641 -25.024 28.833 -25 28 C-27.793 30.374 -28.601 32.355 -29.5 35.875 C-31.744 43.666 -31.744 43.666 -34 46 C-37.319 46.589 -38.884 46.847 -42 46 C-46.269 42.206 -48.9 37.656 -50 32 C-50.773 18.662 -50.773 18.662 -49 13 C-48.01 13.33 -47.02 13.66 -46 14 C-45.248 15.934 -45.248 15.934 -44.719 18.438 C-44.516 19.332 -44.314 20.227 -44.105 21.148 C-43.702 23.049 -43.298 24.951 -42.895 26.852 C-42.692 27.746 -42.49 28.641 -42.281 29.562 C-42.107 30.389 -41.932 31.215 -41.752 32.066 C-41.504 32.704 -41.256 33.343 -41 34 C-40.01 34.33 -39.02 34.66 -38 35 C-37.636 34.01 -37.273 33.02 -36.898 32 C-33.713 23.554 -30.475 16.475 -24 10 C-21.5 10.188 -21.5 10.188 -19 11 C-16.904 14.144 -16.747 14.966 -16.691 18.562 C-16.666 19.442 -16.641 20.321 -16.615 21.227 C-16.58 23.075 -16.549 24.924 -16.521 26.773 C-16.495 27.653 -16.469 28.532 -16.441 29.438 C-16.428 30.241 -16.414 31.044 -16.401 31.871 C-15.902 34.522 -15.154 35.409 -13 37 C-9.543 37.667 -9.543 37.667 -6 37 C-3.227 34.321 -2.1 32.686 -1.539 28.844 C-1.567 27.74 -1.596 26.637 -1.625 25.5 C-1.638 24.397 -1.651 23.293 -1.664 22.156 C-1.995 19.048 -2.781 16.851 -4 14 C-4.599 7.714 -3.93 4.912 0 0 Z " fill="#F7FAF9" transform="translate(239,128)"/>
<path d="M0 0 C5.119 4.639 9.347 10.145 13 16 C13 16.99 13 17.98 13 19 C11.35 19 9.7 19 8 19 C8.219 20.109 8.219 20.109 8.443 21.24 C9.118 24.679 9.778 28.121 10.438 31.562 C10.668 32.725 10.898 33.887 11.135 35.084 C13.913 49.702 14.208 64.27 14.24 79.099 C14.25 81.826 14.281 84.553 14.312 87.279 C14.449 109.48 14.449 109.48 6.031 118.309 C-1.359 124.463 -9.778 125.181 -19 125 C-19.33 123.68 -19.66 122.36 -20 121 C-15.749 118.048 -11.632 115.196 -6.875 113.125 C-2.154 110.883 1.01 107.221 4 103 C5.245 99.266 5.181 95.785 5.172 91.895 C5.17 91.094 5.169 90.293 5.167 89.468 C5.085 81.135 4.248 72.952 3.25 64.688 C3.07 63.128 2.891 61.569 2.712 60.01 C1.413 48.825 -0.076 37.668 -1.78 26.538 C-4.69 6.826 -4.69 6.826 0 0 Z " fill="#F7FAF9" transform="translate(434,131)"/>
<path d="M0 0 C3 1 3 1 4.605 3.512 C5.128 4.56 5.65 5.608 6.188 6.688 C6.717 7.723 7.247 8.758 7.793 9.824 C9.051 13.134 9.237 15.494 9 19 C8.01 19.33 7.02 19.66 6 20 C6.219 21.397 6.219 21.397 6.443 22.823 C6.993 26.343 7.539 29.864 8.081 33.385 C8.315 34.897 8.551 36.409 8.788 37.92 C10.256 47.268 11.497 56.54 12 66 C12.061 67.123 12.122 68.247 12.185 69.405 C13.429 96.858 13.429 96.858 5 108 C4.375 108.874 3.75 109.748 3.105 110.648 C-1.698 116.694 -7.591 120.959 -15.273 122.438 C-18.866 122.651 -20.679 122.256 -23.5 120 C-23.995 119.34 -24.49 118.68 -25 118 C-24 115 -24 115 -21.445 113.492 C-20.35 112.959 -19.254 112.425 -18.125 111.875 C-10.219 107.774 -1.867 102.678 3 95 C4.67 84.4 2.186 72.264 1.188 61.625 C1.098 60.645 1.008 59.666 0.915 58.656 C-0.165 46.889 -1.265 35.14 -3.136 23.467 C-4.365 15.618 -5.467 7.969 -1 1 C-0.67 0.67 -0.34 0.34 0 0 Z " fill="#F5F9F7" transform="translate(327,133)"/>
<path d="M0 0 C0.66 0 1.32 0 2 0 C3.201 1.828 4.311 3.715 5.375 5.625 C8.235 10.702 8.235 10.702 11.438 15.562 C13 18 13 18 13 21 C11.35 21 9.7 21 8 21 C8.105 21.622 8.211 22.245 8.32 22.886 C15.498 65.34 15.498 65.34 16 76 C16.038 76.673 16.076 77.345 16.115 78.039 C17.07 96.768 17.07 96.768 11 104 C9.515 104.495 9.515 104.495 8 105 C7.996 104.385 7.992 103.77 7.988 103.137 C7.708 78.712 7.091 42.183 -4 20 C-4.669 13.19 -3.752 7.261 -1 1 C-0.67 0.67 -0.34 0.34 0 0 Z " fill="#F5F9F7" transform="translate(343,132)"/>
<path d="M0 0 C0.99 0 1.98 0 3 0 C2.966 10.624 0.996 19.175 -6.047 27.387 C-14.182 35.19 -24.063 38.389 -35.172 38.285 C-40.211 37.777 -44.27 35.952 -47.641 32.148 C-51.848 25.499 -51.174 17.456 -50 10 C-49.67 10 -49.34 10 -49 10 C-48.986 10.713 -48.972 11.426 -48.957 12.16 C-48.635 18.634 -47.887 23.458 -43 28 C-37.156 32.329 -30.974 31.569 -24 31 C-17.946 29.839 -12.949 26.719 -9 22 C-4.764 15.109 -1.972 7.821 0 0 Z " fill="#137744" transform="translate(141,205)"/>
<path d="M0 0 C1.938 1.062 1.938 1.062 3 3 C2.688 6.688 2.688 6.688 2 10 C1.34 10 0.68 10 0 10 C0.99 10.99 1.98 11.98 3 13 C0.487 19.172 -5.242 23.514 -10 28 C-10.625 28.603 -11.25 29.207 -11.895 29.828 C-16.803 33.984 -21.945 33.493 -28 33 C-26.552 29.448 -24.802 27.839 -21.684 25.652 C-20.837 25.047 -19.991 24.442 -19.119 23.818 C-18.234 23.198 -17.349 22.577 -16.438 21.938 C-14.681 20.703 -12.93 19.463 -11.184 18.215 C-10.406 17.669 -9.628 17.124 -8.826 16.562 C-6.726 15.037 -6.726 15.037 -6 12 C-7.32 11.01 -8.64 10.02 -10 9 C-9.688 5.625 -9.688 5.625 -9 2 C-5.531 -0.313 -4.078 -0.425 0 0 Z " fill="#EEF5F2" transform="translate(183,132)"/>
<path d="M0 0 C0.99 0.33 1.98 0.66 3 1 C3 1.66 3 2.32 3 3 C3.66 3 4.32 3 5 3 C5 2.34 5 1.68 5 1 C5.99 1 6.98 1 8 1 C8 1.99 8 2.98 8 4 C8.66 4 9.32 4 10 4 C10.33 2.68 10.66 1.36 11 0 C11.99 0.33 12.98 0.66 14 1 C13.86 2.48 13.712 3.959 13.562 5.438 C13.481 6.261 13.4 7.085 13.316 7.934 C13 10 13 10 12 11 C10.917 19.113 13.609 24.414 18 31 C18.079 33.332 18.088 35.668 18 38 C15.339 38.484 13.529 38.266 11.109 37.051 C8.939 35.511 7.488 34.216 6 32 C5.665 29.176 5.815 26.584 6.012 23.75 C5.993 19.458 4.132 16.603 2 13 C1.327 11.336 0.658 9.67 0 8 C-0.33 7.67 -0.66 7.34 -1 7 C-1.125 4 -1.125 4 -1 1 C-0.67 0.67 -0.34 0.34 0 0 Z " fill="#0B723D" transform="translate(111,132)"/>
<path d="M0 0 C2.562 0.375 2.562 0.375 4.375 2.062 C5.738 4.717 5.808 6.431 5.562 9.375 C4.243 9.705 2.923 10.035 1.562 10.375 C1.233 14.665 0.902 18.955 0.562 23.375 C-3.135 22.451 -4.59 21.777 -7.5 19.562 C-8.172 19.061 -8.843 18.56 -9.535 18.043 C-12.705 15.264 -14.353 13.458 -14.688 9.188 C-14.438 6.375 -14.438 6.375 -13.438 5.375 C-10.271 5.033 -8.833 5.119 -6.125 6.875 C-5.29 7.618 -5.29 7.618 -4.438 8.375 C-4.479 7.426 -4.52 6.477 -4.562 5.5 C-4.409 1.66 -3.858 0.594 0 0 Z " fill="#F6F9F8" transform="translate(377.4375,162.625)"/>
<path d="M0 0 C0.862 0.041 1.724 0.082 2.612 0.124 C3.547 0.167 4.482 0.211 5.446 0.256 C6.43 0.308 7.414 0.359 8.428 0.413 C9.898 0.478 9.898 0.478 11.399 0.545 C18.733 0.909 18.733 0.909 20.99 2.038 C20.99 3.028 20.99 4.018 20.99 5.038 C20.425 5.222 19.859 5.406 19.276 5.596 C16.876 6.545 15.006 7.414 12.99 9.038 C11.988 12.056 11.882 14.874 11.99 18.038 C7.955 17.509 5.813 16.444 2.803 13.725 C2.129 13.131 1.455 12.537 0.76 11.924 C-1.805 9.19 -2.936 7.096 -3.197 3.35 C-2.961 0.445 -2.923 0.055 0 0 Z " fill="#09713C" transform="translate(230.009521484375,216.96240234375)"/>
<path d="M0 0 C2 1.5 2 1.5 3 3 C2 6 2 6 -0.636 7.426 C-1.785 7.907 -2.934 8.388 -4.117 8.883 C-4.73 9.143 -5.343 9.402 -5.975 9.67 C-7.937 10.499 -9.906 11.312 -11.875 12.125 C-13.194 12.68 -14.513 13.236 -15.832 13.793 C-25.191 17.73 -25.191 17.73 -29 19 C-26.312 10.692 -20.332 6.168 -13 2 C-8.321 -0.137 -5.1 -0.411 0 0 Z " fill="#F1F7F4" transform="translate(97,191)"/>
<path d="M0 0 C1.266 3.867 1.112 7.732 1.062 11.75 C1.058 12.447 1.053 13.145 1.049 13.863 C1.037 15.576 1.019 17.288 1 19 C1.66 19 2.32 19 3 19 C3.33 18.34 3.66 17.68 4 17 C5.32 17.33 6.64 17.66 8 18 C7.585 23.288 6.648 26.117 3 30 C0.188 29.812 0.188 29.812 -3 29 C-7.043 23.691 -6.738 18.401 -6 12 C-4.72 7.488 -3.351 3.351 0 0 Z " fill="#EEF5F1" transform="translate(70,223)"/>
<path d="M0 0 C0.438 2.125 0.438 2.125 0 5 C-5.529 10.787 -12.848 15.434 -20 19 C-20.99 18.67 -21.98 18.34 -23 18 C-23.309 15.746 -23.309 15.746 -23 13 C-20.91 10.973 -20.91 10.973 -18.062 9.062 C-17.063 8.384 -16.064 7.706 -15.035 7.008 C-14.034 6.345 -13.032 5.683 -12 5 C-11.132 4.379 -10.265 3.757 -9.371 3.117 C-3.38 -1.127 -3.38 -1.127 0 0 Z " fill="#F0F6F3" transform="translate(390,187)"/>
<path d="M0 0 C0.557 0.248 1.114 0.495 1.688 0.75 C1.688 3.06 1.688 5.37 1.688 7.75 C2.554 7.42 3.42 7.09 4.312 6.75 C7.645 5.763 10.239 5.586 13.688 5.75 C14.017 7.07 14.348 8.39 14.688 9.75 C12.795 10.426 10.898 11.091 9 11.75 C7.416 12.307 7.416 12.307 5.801 12.875 C2.89 13.693 0.685 14.009 -2.312 13.75 C-3.312 12.75 -3.312 12.75 -3.375 10.188 C-3.354 9.383 -3.334 8.579 -3.312 7.75 C-4.962 7.75 -6.613 7.75 -8.312 7.75 C-7.98 4.65 -7.258 3.695 -5 1.438 C-2.312 -0.25 -2.312 -0.25 0 0 Z " fill="#ECF4F0" transform="translate(277.3125,234.25)"/>
<path d="M0 0 C2.31 0 4.62 0 7 0 C7.625 1.812 7.625 1.812 8 4 C7.01 5.485 7.01 5.485 6 7 C7.65 7 9.3 7 11 7 C11 8.32 11 9.64 11 11 C2.738 15.592 2.738 15.592 -2 15 C-2 13.68 -2 12.36 -2 11 C-1.01 10.34 -0.02 9.68 1 9 C1.724 6.941 1.724 6.941 2 5 C1.01 4.67 0.02 4.34 -1 4 C-0.67 2.68 -0.34 1.36 0 0 Z " fill="#EEF5F2" transform="translate(405,239)"/>
<path d="M0 0 C2.438 0.188 2.438 0.188 5 1 C7.325 4.352 7.299 7.505 7.312 11.5 C7.329 12.624 7.346 13.748 7.363 14.906 C6.971 18.248 6.368 19.649 4 22 C3.34 22 2.68 22 2 22 C1.927 20.896 1.927 20.896 1.852 19.77 C1.777 18.794 1.702 17.818 1.625 16.812 C1.555 15.85 1.486 14.887 1.414 13.895 C0.997 10.977 0.139 8.703 -1 6 C-1.188 3.25 -1.188 3.25 -1 1 C-0.67 0.67 -0.34 0.34 0 0 Z " fill="#EFF6F2" transform="translate(383,199)"/>
<path d="M0 0 C0.99 0.33 1.98 0.66 3 1 C3 1.66 3 2.32 3 3 C3.66 3 4.32 3 5 3 C5 2.34 5 1.68 5 1 C5.99 1 6.98 1 8 1 C8 1.99 8 2.98 8 4 C8.66 4 9.32 4 10 4 C10.33 2.68 10.66 1.36 11 0 C11.99 0.33 12.98 0.66 14 1 C14.367 6.501 14.367 6.501 12.77 8.676 C10.541 10.344 9.261 10.403 6.5 10.375 C5.727 10.383 4.953 10.39 4.156 10.398 C1.491 9.906 0.597 9.163 -1 7 C-1.25 3.875 -1.25 3.875 -1 1 C-0.67 0.67 -0.34 0.34 0 0 Z " fill="#EFF6F2" transform="translate(111,132)"/>
<path d="M0 0 C0.99 0 1.98 0 3 0 C3 0.99 3 1.98 3 3 C3.66 3 4.32 3 5 3 C5 2.01 5 1.02 5 0 C5.99 0 6.98 0 8 0 C8 0.99 8 1.98 8 3 C8.66 3 9.32 3 10 3 C10 2.01 10 1.02 10 0 C11.32 0 12.64 0 14 0 C14.125 3.375 14.125 3.375 14 7 C11.49 9.51 10.532 9.297 7.062 9.312 C5.75 9.338 5.75 9.338 4.41 9.363 C2 9 2 9 0.199 7.645 C-1.462 5.367 -1.289 3.749 -1 1 C-0.67 0.67 -0.34 0.34 0 0 Z " fill="#F4F8F6" transform="translate(235,181)"/>
<path d="M0 0 C9.9 0 19.8 0 30 0 C30 1.32 30 2.64 30 4 C20.1 4 10.2 4 0 4 C0 2.68 0 1.36 0 0 Z " fill="#167946" transform="translate(355,372)"/>
<path d="M0 0 C0.99 0 1.98 0 3 0 C3.33 0.66 3.66 1.32 4 2 C5.32 1.34 6.64 0.68 8 0 C8 0.99 8 1.98 8 3 C8.66 3 9.32 3 10 3 C10.33 2.01 10.66 1.02 11 0 C11.99 0 12.98 0 14 0 C14.312 3.312 14.312 3.312 14 7 C11.938 9 11.938 9 9 10 C2.679 9.679 2.679 9.679 0 7 C-0.125 3.375 -0.125 3.375 0 0 Z " fill="#F2F8F5" transform="translate(307,161)"/>
<path d="M0 0 C2.312 0.062 2.312 0.062 5 1 C7.886 4.198 9.26 6.797 9.438 11.062 C9.005 14.958 8.321 16.905 6 20 C5.34 19.67 4.68 19.34 4 19 C4.103 18.154 4.206 17.309 4.312 16.438 C3.938 12.313 2.596 10.834 0.117 7.676 C-1.413 5.381 -1.473 3.682 -1 1 C-0.67 0.67 -0.34 0.34 0 0 Z " fill="#F1F7F4" transform="translate(308,133)"/>
<path d="M0 0 C2.78 0.278 3.798 0.775 5.688 2.875 C8.197 6.937 8.313 10.308 8 15 C7.176 17.467 6.149 19.655 5 22 C4.67 22 4.34 22 4 22 C3.961 21.13 3.961 21.13 3.922 20.242 C3.513 14.612 2.242 11.706 -1 7 C-1.312 3.688 -1.312 3.688 -1 1 C-0.67 0.67 -0.34 0.34 0 0 Z " fill="#EFF6F2" transform="translate(421,143)"/>
<path d="M0 0 C0 2.31 0 4.62 0 7 C1.98 6.67 3.96 6.34 6 6 C4.926 8.915 4.222 10.778 2 13 C-1.103 13.33 -3.158 13.505 -5.875 11.875 C-7.555 9.076 -7.457 7.202 -7 4 C-4.658 0.931 -3.927 0 0 0 Z " fill="#F0F6F3" transform="translate(178,162)"/>
<path d="M0 0 C4.416 6.623 4.306 16.197 4 24 C2.68 24 1.36 24 0 24 C-1.188 21.624 -1.129 20.149 -1.133 17.5 C-1.134 16.613 -1.135 15.726 -1.137 14.812 C-1.133 13.884 -1.129 12.956 -1.125 12 C-1.129 11.072 -1.133 10.144 -1.137 9.188 C-1.135 8.301 -1.134 7.414 -1.133 6.5 C-1.132 5.685 -1.131 4.871 -1.129 4.031 C-1 2 -1 2 0 0 Z " fill="#197A48" transform="translate(95,148)"/>
<path d="M0 0 C4.75 0.75 4.75 0.75 7 3 C7.266 5.242 7.266 5.242 7.25 7.875 C7.255 8.739 7.26 9.602 7.266 10.492 C6.989 13.105 6.319 14.75 5 17 C4.34 17 3.68 17 3 17 C2.897 15.762 2.794 14.525 2.688 13.25 C2.256 9.589 1.222 7.929 -1 5 C-0.688 2.25 -0.688 2.25 0 0 Z " fill="#EDF4F1" transform="translate(76,131)"/>
<path d="M0 0 C0.99 0.33 1.98 0.66 3 1 C2.405 11.558 2.405 11.558 -1 16 C-1.99 15.67 -2.98 15.34 -4 15 C-4.294 6.333 -4.294 6.333 -2 2 C-1.34 1.34 -0.68 0.68 0 0 Z " fill="#F0F6F3" transform="translate(228,129)"/>
<path d="M0 0 C3.269 0.265 4.634 0.598 6.875 3.062 C8.45 7.174 7.847 9.692 7 14 C6.67 14.66 6.34 15.32 6 16 C5.34 16 4.68 16 4 16 C3.917 14.762 3.835 13.525 3.75 12.25 C3.278 8.19 1.989 6.79 -1 4 C-0.75 1.75 -0.75 1.75 0 0 Z " fill="#F0F6F3" transform="translate(164,208)"/>
<path d="M0 0 C-0.573 2.867 -0.861 3.861 -3 6 C-3.643 8.069 -3.643 8.069 -4 10 C-3.01 10 -2.02 10 -1 10 C-1.66 11.32 -2.32 12.64 -3 14 C-7.875 13.125 -7.875 13.125 -9 12 C-9.583 9.167 -9.354 7.54 -7.766 5.113 C-3.575 0 -3.575 0 0 0 Z " fill="#ECF4F0" transform="translate(206,128)"/>
<path d="M0 0 C0.33 0 0.66 0 1 0 C1.037 0.785 1.075 1.57 1.113 2.379 C1.505 8.644 2.248 13.376 5 19 C5 19.99 5 20.98 5 22 C3.68 21.67 2.36 21.34 1 21 C-1.816 14.044 -0.753 7.334 0 0 Z " fill="#1B7C4A" transform="translate(106,146)"/>
<path d="M0 0 C3.3 0 6.6 0 10 0 C10 0.99 10 1.98 10 3 C6.7 3 3.4 3 0 3 C0 2.01 0 1.02 0 0 Z " fill="#046E38" transform="translate(375,373)"/>
<path d="M0 0 C2.062 0.438 2.062 0.438 4 1 C4 2.32 4 3.64 4 5 C2.02 5 0.04 5 -2 5 C-1.125 1.125 -1.125 1.125 0 0 Z " fill="#107542" transform="translate(125,195)"/>
<path d="M0 0 C0.33 0 0.66 0 1 0 C1.33 4.62 1.66 9.24 2 14 C1.01 14 0.02 14 -1 14 C-0.67 9.38 -0.34 4.76 0 0 Z " fill="#60A481" transform="translate(106,146)"/>
<path d="M0 0 C2.97 0.495 2.97 0.495 6 1 C6 1.99 6 2.98 6 4 C4.35 3.67 2.7 3.34 1 3 C0.67 2.01 0.34 1.02 0 0 Z " fill="#0B723E" transform="translate(264,188)"/>
<path d="M0 0 C0.33 0 0.66 0 1 0 C1 3.3 1 6.6 1 10 C0.01 9.34 -0.98 8.68 -2 8 C-2 7.01 -2 6.02 -2 5 C-1.34 5 -0.68 5 0 5 C-0.33 4.01 -0.66 3.02 -1 2 C-0.67 1.34 -0.34 0.68 0 0 Z " fill="#3D8F65" transform="translate(387,140)"/>
<path d="M0 0 C1.32 0.33 2.64 0.66 4 1 C4 1.99 4 2.98 4 4 C2.68 3.67 1.36 3.34 0 3 C0 2.01 0 1.02 0 0 Z " fill="#1A7B4A" transform="translate(178,138)"/>
<path d="M0 0 C1.32 0.33 2.64 0.66 4 1 C3.67 2.32 3.34 3.64 3 5 C1.5 3.625 1.5 3.625 0 2 C0 1.34 0 0.68 0 0 Z " fill="#258152" transform="translate(285,147)"/>
</svg>