
<!-- Generator: visioncortex VTracer 0.6.4 -->
<svg version="1.1" xmlns="http://www.w3.org/2000/svg" viewBox="0 0 512 512" preserveAspectRatio="xMidYMid meet">
<path d="M0 0 C1.018 0.002 2.036 0.004 3.086 0.007 C17.707 0.056 32.006 0.362 46.375 3.312 C47.894 3.611 47.894 3.611 49.443 3.915 C95.285 13.082 139.738 34.105 173.645 66.699 C175.955 68.91 178.307 71.001 180.75 73.062 C183.993 75.872 186.785 78.908 189.551 82.184 C190.784 83.623 192.054 85.032 193.355 86.41 C223.714 118.649 242.966 161.606 252.125 204.5 C252.423 205.887 252.423 205.887 252.728 207.302 C256.019 223.509 256.75 239.443 256.688 255.938 C256.685 256.956 256.683 257.974 256.681 259.023 C256.631 273.645 256.326 287.944 253.375 302.312 C253.077 303.831 253.077 303.831 252.773 305.381 C243.606 351.223 222.582 395.676 189.988 429.582 C187.777 431.892 185.686 434.245 183.625 436.688 C180.816 439.93 177.78 442.722 174.504 445.488 C173.064 446.722 171.656 447.992 170.277 449.293 C138.038 479.652 95.081 498.903 52.188 508.062 C51.263 508.261 50.338 508.46 49.385 508.665 C33.178 511.957 17.245 512.688 0.75 512.625 C-0.777 512.622 -0.777 512.622 -2.336 512.618 C-16.957 512.569 -31.256 512.263 -45.625 509.312 C-46.638 509.114 -47.65 508.915 -48.693 508.71 C-94.535 499.543 -138.988 478.52 -172.895 445.926 C-175.205 443.715 -177.557 441.624 -180 439.562 C-183.243 436.753 -186.035 433.717 -188.801 430.441 C-190.034 429.002 -191.304 427.593 -192.605 426.215 C-222.964 393.976 -242.216 351.019 -251.375 308.125 C-251.574 307.2 -251.773 306.275 -251.978 305.323 C-255.269 289.116 -256 273.182 -255.938 256.688 C-255.935 255.669 -255.933 254.651 -255.931 253.602 C-255.881 238.98 -255.576 224.681 -252.625 210.312 C-252.426 209.3 -252.228 208.287 -252.023 207.244 C-242.856 161.402 -221.832 116.949 -189.238 83.043 C-187.027 80.733 -184.936 78.38 -182.875 75.938 C-180.066 72.695 -177.03 69.903 -173.754 67.137 C-172.314 65.903 -170.906 64.633 -169.527 63.332 C-137.288 32.973 -94.331 13.722 -51.438 4.562 C-50.513 4.364 -49.588 4.165 -48.635 3.96 C-32.428 0.668 -16.495 -0.063 0 0 Z " fill="#FEFEFE" transform="translate(255.625,-0.3125)"/>
<path d="M0 0 C0.757 0.183 1.515 0.365 2.295 0.554 C26.168 6.441 47.46 17.978 66 34 C66.495 34.427 66.991 34.854 67.501 35.293 C74.774 41.609 81.182 48.295 87 56 C87.607 56.794 87.607 56.794 88.226 57.605 C113.687 91.132 122.877 133.227 117.231 174.792 C116.642 178.239 115.87 181.614 115 185 C114.817 185.757 114.635 186.515 114.446 187.295 C108.559 211.168 97.022 232.46 81 251 C80.573 251.495 80.146 251.991 79.707 252.501 C73.376 259.792 66.745 266.18 59 272 C58.062 272.715 57.123 273.431 56.156 274.168 C36.193 288.703 13.373 298.164 -11 302 C-12.065 302.172 -13.13 302.344 -14.227 302.521 C-20.215 303.281 -26.205 303.186 -32.23 303.185 C-34.466 303.187 -36.702 303.206 -38.938 303.225 C-51.968 303.278 -64.624 302.136 -77.188 298.438 C-78.506 298.052 -78.506 298.052 -79.85 297.659 C-101.521 291.045 -120.201 280.044 -137 265 C-137.871 264.261 -138.743 263.523 -139.641 262.762 C-167.08 239.162 -184.588 202.798 -188 167 C-188.271 162.082 -188.289 157.165 -188.261 152.241 C-188.25 150.068 -188.261 147.895 -188.273 145.721 C-188.288 132.824 -187.096 120.241 -183.438 107.812 C-183.181 106.934 -182.924 106.055 -182.659 105.15 C-176.038 83.457 -165.023 64.837 -150 48 C-149.374 47.252 -148.747 46.505 -148.102 45.734 C-125.604 18.907 -89.43 0.554 -54.677 -2.834 C-36.676 -3.947 -17.544 -4.505 0 0 Z " fill="#BC002D" transform="translate(291,106)"/>
</svg>