<?xml version="1.0" encoding="UTF-8"?>
<svg id="Layer_1" data-name="Layer 1" xmlns="http://www.w3.org/2000/svg" viewBox="0 0 841.89 595.28">
  <defs>
    <style>
      .cls-1 {
        fill: #231f20;
      }
    </style>
  </defs>
  <g>
    <path class="cls-1" d="M476.79,161.77v-36.12c-2.56,2.02-5.74,3.98-9.67,5.77-10.42,4.77-24.03,7.4-38.34,7.4-10.92,0-21.44-1.53-30.43-4.38-2.8-.88-5.44-1.89-7.91-3.02-4.01-1.84-7.24-3.84-9.83-5.9v88.58c8.5.8,16.5,2.56,23.41,5.15,1.46.54,2.87,1.13,4.22,1.75,4.84,2.22,8.53,4.67,11.36,7.19v-18.86c0-2.07.33-21.45,1.52-24.46,2.17-5.51,7.27-11.97,18.58-17.16,10.11-4.64,23.24-5.8,37.1-5.95Z"/>
    <path class="cls-1" d="M412.55,236.48c-.2-.16-.41-.32-.62-.49-.21-.16-.43-.33-.64-.48-.22-.16-.45-.32-.68-.47-1.56-1.06-3.35-2.06-5.33-2.97-.24-.12-.48-.22-.72-.33-.24-.11-.49-.21-.74-.32-.49-.22-1-.42-1.52-.62-.83-.32-1.68-.64-2.56-.93-.31-.1-.63-.21-.96-.31,0,0-.01,0-.02,0-.41-.14-.81-.26-1.23-.39-.21-.06-.42-.12-.63-.18-.21-.06-.42-.13-.64-.18-.43-.12-.86-.24-1.3-.35-.44-.12-.88-.22-1.33-.33-.45-.11-.9-.22-1.35-.32-.91-.2-1.84-.4-2.78-.58-.47-.09-.95-.18-1.43-.26-.48-.09-.96-.17-1.45-.24-.38-.06-.75-.12-1.13-.17-.34-.05-.69-.1-1.04-.15-.42-.06-.84-.12-1.27-.16-.85-.11-1.7-.2-2.57-.28-3.31-.32-6.74-.5-10.27-.51h-.44c-18.53,0-34.61,4.48-42.67,11.06-3.52,2.86-5.51,6.13-5.51,9.59,0,10.56,18.46,19.26,42.29,20.5,1.93.09,3.89.15,5.88.15h.44c3.53-.01,6.96-.19,10.27-.51,20.18-1.96,35.54-9.35,37.29-18.4.11-.57.17-1.15.17-1.73,0-3.46-1.99-6.73-5.51-9.59Z"/>
    <path class="cls-1" d="M380.6,277.83c-3.36.32-6.8.49-10.27.5h-.44c-5.22,0-10.36-.36-15.28-1.03-8.56-1.18-16.46-3.35-23.07-6.37-4.01-1.84-7.23-3.84-9.82-5.9v102.34c-.03.3-.04.6-.04.9,0,3.61,1.88,7.02,5.22,10.03,7.96,7.16,24.18,12.07,42.89,12.07s34.93-4.9,42.89-12.07c3.34-3.01,5.22-6.42,5.22-10.03,0-.08,0-.16,0-.24h0v-74.59,5.62-33.91c-2.56,2.01-5.74,3.97-9.66,5.77-7.77,3.56-17.34,5.93-27.63,6.9Z"/>
    <path class="cls-1" d="M386.01,115.79c2.85,2.28,6.74,4.3,11.4,5.97,8.42,3.01,19.39,4.82,31.36,4.82,25.27,0,46.01-8.08,48.01-18.37.11-.54.16-1.09.16-1.64,0-3.36-1.99-6.52-5.51-9.3-8.06-6.37-24.14-10.71-42.66-10.71s-34.61,4.34-42.66,10.71c-3.52,2.78-5.51,5.94-5.51,9.3s1.96,6.46,5.41,9.23Z"/>
    <path class="cls-1" d="M369.88,213.61h.44v-81.27l-161.04,161.05,56.29,56.29,45.86-45.86v-57.84c0-2.63.52-6.3,2.67-10.26,2.64-4.9,7.77-10.26,17.42-14.69,10.42-4.77,24.04-7.4,38.35-7.4Z"/>
    <path class="cls-1" d="M505.96,177.21c-5.54-1.65-11.96-2.82-18.91-3.37-2.92-.24-5.93-.36-9.02-.36-.41,0-.83,0-1.25,0-20.08.21-37.1,5.56-43.84,13.02-1.99,2.2-3.09,4.6-3.09,7.1,0,.77.1,1.52.3,2.26,2.34,8.78,18.18,15.85,38.65,17.51,2.59.21,5.25.34,7.98.36.41,0,.83,0,1.25,0,3.09,0,6.1-.12,9.02-.36,20.56-1.62,36.5-8.71,38.86-17.52.2-.74.3-1.49.3-2.26,0-2.5-1.09-4.9-3.09-7.1-3.4-3.77-9.43-7-17.16-9.3Z"/>
    <path class="cls-1" d="M487.05,225.4c-2.96.24-5.97.35-9.02.35-.41,0-.83,0-1.25,0-2.19-.02-4.36-.11-6.51-.26-11.43-.76-22.09-3.23-30.59-7.14-4.01-1.84-7.24-3.84-9.83-5.9v154.71c-.03.3-.04.6-.04.9,0,3.61,1.88,7.02,5.23,10.03,7.95,7.16,24.17,12.07,42.89,12.07s34.93-4.9,42.89-12.07c3.35-3.01,5.23-6.41,5.23-10.03,0-.08,0-.16,0-.24h0v-155.24c-2.56,2.02-5.74,3.98-9.67,5.77-8.2,3.76-18.38,6.19-29.32,7.05Z"/>
    <path class="cls-1" d="M536.31,256.61l91.3-91.3-56.29-56.29-57.45,58.35c.85.35,1.69.7,2.51,1.08,11.32,5.19,16.4,11.66,18.57,17.16.76,1.9,1.17,3.68,1.36,5.26v65.74Z"/>
  </g>
  <g>
    <path class="cls-1" d="M42.83,507.14v-80.95h37.3c7.41,0,13.25,1.76,17.52,5.27,4.27,3.51,6.41,8.3,6.41,14.34,0,3.48-.74,6.58-2.21,9.3-1.47,2.72-3.63,4.99-6.46,6.8s-6.29,3.17-10.37,4.08l-.79-1.36c4.84.15,8.99,1.1,12.47,2.83,3.48,1.74,6.18,4.08,8.11,7.03,1.93,2.95,2.89,6.35,2.89,10.2,0,4.61-1.12,8.6-3.34,11.96-2.23,3.36-5.39,5.95-9.47,7.77-4.08,1.81-8.96,2.72-14.63,2.72h-37.42ZM59.61,459.3h17.23c2.04,0,3.85-.43,5.44-1.3,1.59-.87,2.83-2.08,3.74-3.63.91-1.55,1.36-3.31,1.36-5.27,0-3.02-.93-5.39-2.78-7.09-1.85-1.7-4.37-2.55-7.54-2.55h-17.46v19.84ZM59.61,493.88h18.93c2.27,0,4.31-.47,6.12-1.42,1.81-.94,3.23-2.27,4.25-3.97,1.02-1.7,1.53-3.65,1.53-5.84s-.51-3.99-1.53-5.61c-1.02-1.62-2.4-2.91-4.14-3.85-1.74-.94-3.74-1.42-6.01-1.42h-19.16v22.11Z"/>
    <path class="cls-1" d="M134.44,508.73c-5.59,0-10.03-1.55-13.32-4.65s-4.93-7.14-4.93-12.13c0-3.4.77-6.33,2.32-8.79,1.55-2.46,3.87-4.54,6.97-6.24,3.1-1.7,7.03-2.93,11.79-3.68l10.54-1.81c2.12-.3,3.57-.92,4.37-1.87.79-.94,1.19-2.13,1.19-3.57v-.11c0-1.59-.36-2.93-1.08-4.03-.72-1.09-1.74-1.95-3.06-2.55-1.32-.6-2.97-.91-4.93-.91-2.95,0-5.31.49-7.09,1.47-1.78.98-2.89,2.61-3.34,4.88h-15.53c.6-4.01,2.1-7.29,4.48-9.86,2.38-2.57,5.44-4.48,9.18-5.73,3.74-1.25,7.95-1.87,12.64-1.87,5.37,0,9.86.81,13.49,2.44,3.63,1.63,6.35,4.04,8.16,7.26,1.81,3.21,2.72,7.2,2.72,11.96v38.21h-14.97v-13.61l1.7,1.47c-1.36,3.4-3.12,6.09-5.27,8.05-2.15,1.97-4.57,3.4-7.26,4.31-2.68.91-5.61,1.36-8.79,1.36ZM139.88,497.05c2.12,0,4.01-.43,5.67-1.3,1.66-.87,3.08-2.04,4.25-3.51,1.17-1.47,2.06-3.17,2.66-5.1.6-1.93.91-3.91.91-5.95v-7.14l2.61,2.95c-.98.91-1.98,1.55-3,1.93-1.02.38-2.59.87-4.71,1.47l-8.05,1.7c-2.65.53-4.69,1.46-6.12,2.78-1.44,1.32-2.15,3-2.15,5.05,0,2.34.72,4.12,2.15,5.33,1.44,1.21,3.36,1.81,5.78,1.81Z"/>
    <path class="cls-1" d="M182.29,507.14v-80.95h15.99v80.95h-15.99Z"/>
    <path class="cls-1" d="M227.64,508.73c-5.59,0-10.03-1.55-13.32-4.65s-4.93-7.14-4.93-12.13c0-3.4.77-6.33,2.32-8.79,1.55-2.46,3.87-4.54,6.97-6.24,3.1-1.7,7.03-2.93,11.79-3.68l10.54-1.81c2.12-.3,3.57-.92,4.37-1.87.79-.94,1.19-2.13,1.19-3.57v-.11c0-1.59-.36-2.93-1.08-4.03-.72-1.09-1.74-1.95-3.06-2.55-1.32-.6-2.97-.91-4.93-.91-2.95,0-5.31.49-7.09,1.47-1.78.98-2.89,2.61-3.34,4.88h-15.53c.6-4.01,2.1-7.29,4.48-9.86,2.38-2.57,5.44-4.48,9.18-5.73,3.74-1.25,7.95-1.87,12.64-1.87,5.37,0,9.86.81,13.49,2.44,3.63,1.63,6.35,4.04,8.16,7.26,1.81,3.21,2.72,7.2,2.72,11.96v38.21h-14.97v-13.61l1.7,1.47c-1.36,3.4-3.12,6.09-5.27,8.05-2.15,1.97-4.57,3.4-7.26,4.31-2.68.91-5.61,1.36-8.79,1.36ZM233.08,497.05c2.12,0,4.01-.43,5.67-1.3,1.66-.87,3.08-2.04,4.25-3.51,1.17-1.47,2.06-3.17,2.66-5.1.6-1.93.91-3.91.91-5.95v-7.14l2.61,2.95c-.98.91-1.98,1.55-3,1.93-1.02.38-2.59.87-4.71,1.47l-8.05,1.7c-2.65.53-4.69,1.46-6.12,2.78-1.44,1.32-2.15,3-2.15,5.05,0,2.34.72,4.12,2.15,5.33,1.44,1.21,3.36,1.81,5.78,1.81Z"/>
    <path class="cls-1" d="M275.48,507.14v-58.28h15.99v13.95l-1.59-1.47c1.21-3.25,2.87-5.91,4.99-7.99,2.12-2.08,4.52-3.61,7.2-4.59,2.68-.98,5.5-1.47,8.45-1.47,3.33,0,6.27.55,8.84,1.64,2.57,1.1,4.71,2.65,6.41,4.65,1.7,2,2.99,4.44,3.85,7.31.87,2.87,1.3,6.08,1.3,9.64v36.62h-15.99v-34.58c0-2.64-.45-4.89-1.36-6.75-.91-1.85-2.15-3.25-3.74-4.19-1.59-.94-3.44-1.42-5.56-1.42-2.57,0-4.82.62-6.75,1.87-1.93,1.25-3.42,2.95-4.48,5.1-1.06,2.15-1.59,4.59-1.59,7.31v32.65h-15.99Z"/>
    <path class="cls-1" d="M370.26,508.73c-5.97,0-11.15-1.34-15.53-4.02-4.38-2.68-7.77-6.33-10.15-10.94-2.38-4.61-3.57-9.86-3.57-15.76,0-3.55.43-6.88,1.3-9.98.87-3.1,2.13-5.91,3.8-8.45,1.66-2.53,3.7-4.71,6.12-6.52,2.42-1.81,5.14-3.23,8.16-4.25,3.02-1.02,6.35-1.53,9.98-1.53,5.06,0,9.5.83,13.32,2.49,3.82,1.66,6.9,4.03,9.24,7.09,2.34,3.06,3.78,6.75,4.31,11.05h-15.99c-.38-1.89-1.08-3.48-2.1-4.76-1.02-1.28-2.31-2.25-3.85-2.89-1.55-.64-3.23-.96-5.05-.96s-3.31.28-4.71.85c-1.4.57-2.63,1.36-3.69,2.38-1.06,1.02-1.93,2.31-2.61,3.85-.68,1.55-1.21,3.29-1.59,5.22-.38,1.93-.57,4.02-.57,6.29,0,3.78.49,7.09,1.47,9.92.98,2.83,2.46,5.03,4.42,6.58,1.96,1.55,4.38,2.32,7.26,2.32s5.14-.66,7.03-1.98c1.89-1.32,3.25-3.38,4.08-6.18h15.99c-.61,3.85-2,7.29-4.19,10.32-2.19,3.02-5.2,5.42-9.01,7.2-3.82,1.78-8.45,2.66-13.89,2.66Z"/>
    <path class="cls-1" d="M434.32,508.73c-5.9,0-11.05-1.34-15.48-4.02-4.42-2.68-7.84-6.33-10.26-10.94-2.42-4.61-3.63-9.86-3.63-15.76,0-3.55.45-6.88,1.36-9.98.91-3.1,2.19-5.91,3.85-8.45,1.66-2.53,3.68-4.72,6.07-6.58,2.38-1.85,5.1-3.27,8.16-4.25,3.06-.98,6.33-1.47,9.81-1.47,4.01,0,7.73.62,11.17,1.87,3.44,1.25,6.42,3.21,8.96,5.9,2.53,2.68,4.48,6.22,5.84,10.6,1.36,4.38,1.93,9.75,1.7,16.1h-46.15v-9.52h31.41c-.3-2.42-.81-4.5-1.53-6.24-.72-1.74-1.63-3.14-2.72-4.2-1.1-1.06-2.38-1.83-3.86-2.32-1.47-.49-3.08-.74-4.82-.74-1.97,0-3.72.28-5.27.85-1.55.57-2.87,1.42-3.97,2.55-1.1,1.13-1.98,2.49-2.66,4.08-.68,1.59-1.19,3.38-1.53,5.39-.34,2-.51,4.14-.51,6.41,0,3.86.47,7.24,1.42,10.15.94,2.91,2.46,5.16,4.54,6.75,2.08,1.59,4.86,2.38,8.33,2.38,2.87,0,5.31-.58,7.31-1.76,2-1.17,3.38-2.7,4.14-4.59h15.76c-.53,3.02-1.91,5.88-4.14,8.56-2.23,2.68-5.31,4.89-9.24,6.63-3.93,1.74-8.62,2.61-14.06,2.61Z"/>
    <path class="cls-1" d="M482.28,507.14v-67.12h-25.06v-13.83h66.78v13.83h-25.06v67.12h-16.67Z"/>
    <path class="cls-1" d="M525.36,507.14v-58.28h15.87v17.35l-1.13-.68c.98-4.08,2.3-7.35,3.97-9.81,1.66-2.46,3.7-4.21,6.12-5.27,2.42-1.06,5.22-1.59,8.39-1.59h3.74v15.31h-5.44c-3.33,0-6.16.72-8.5,2.15-2.34,1.44-4.12,3.51-5.33,6.24-1.21,2.72-1.81,6.05-1.81,9.98v24.6h-15.87Z"/>
    <path class="cls-1" d="M585.91,508.73c-5.59,0-10.03-1.55-13.32-4.65s-4.93-7.14-4.93-12.13c0-3.4.77-6.33,2.32-8.79,1.55-2.46,3.87-4.54,6.97-6.24,3.1-1.7,7.03-2.93,11.79-3.68l10.54-1.81c2.12-.3,3.57-.92,4.37-1.87.79-.94,1.19-2.13,1.19-3.57v-.11c0-1.59-.36-2.93-1.08-4.03-.72-1.09-1.74-1.95-3.06-2.55-1.32-.6-2.97-.91-4.93-.91-2.95,0-5.31.49-7.09,1.47-1.78.98-2.89,2.61-3.34,4.88h-15.53c.6-4.01,2.1-7.29,4.48-9.86,2.38-2.57,5.44-4.48,9.18-5.73,3.74-1.25,7.95-1.87,12.64-1.87,5.37,0,9.86.81,13.49,2.44,3.63,1.63,6.35,4.04,8.16,7.26,1.81,3.21,2.72,7.2,2.72,11.96v38.21h-14.97v-13.61l1.7,1.47c-1.36,3.4-3.12,6.09-5.27,8.05-2.15,1.97-4.57,3.4-7.26,4.31-2.68.91-5.61,1.36-8.79,1.36ZM591.35,497.05c2.12,0,4-.43,5.67-1.3,1.66-.87,3.08-2.04,4.25-3.51s2.06-3.17,2.67-5.1c.6-1.93.91-3.91.91-5.95v-7.14l2.61,2.95c-.98.91-1.98,1.55-3,1.93-1.02.38-2.59.87-4.71,1.47l-8.05,1.7c-2.65.53-4.69,1.46-6.12,2.78-1.44,1.32-2.15,3-2.15,5.05,0,2.34.72,4.12,2.15,5.33,1.43,1.21,3.36,1.81,5.78,1.81Z"/>
    <path class="cls-1" d="M659.15,508.73c-5.97,0-11.15-1.34-15.53-4.02-4.38-2.68-7.77-6.33-10.15-10.94-2.38-4.61-3.57-9.86-3.57-15.76,0-3.55.43-6.88,1.3-9.98.87-3.1,2.13-5.91,3.8-8.45,1.66-2.53,3.7-4.71,6.12-6.52,2.42-1.81,5.14-3.23,8.16-4.25,3.02-1.02,6.35-1.53,9.98-1.53,5.06,0,9.5.83,13.32,2.49,3.82,1.66,6.9,4.03,9.24,7.09,2.34,3.06,3.78,6.75,4.31,11.05h-15.99c-.38-1.89-1.08-3.48-2.1-4.76-1.02-1.28-2.31-2.25-3.85-2.89-1.55-.64-3.23-.96-5.05-.96s-3.31.28-4.71.85c-1.4.57-2.63,1.36-3.68,2.38-1.06,1.02-1.93,2.31-2.61,3.85-.68,1.55-1.21,3.29-1.59,5.22-.38,1.93-.57,4.02-.57,6.29,0,3.78.49,7.09,1.47,9.92.98,2.83,2.46,5.03,4.42,6.58,1.96,1.55,4.38,2.32,7.26,2.32s5.14-.66,7.03-1.98c1.89-1.32,3.25-3.38,4.08-6.18h15.99c-.61,3.85-2,7.29-4.2,10.32-2.19,3.02-5.2,5.42-9.01,7.2-3.82,1.78-8.45,2.66-13.89,2.66Z"/>
    <path class="cls-1" d="M697.02,507.14v-80.95h15.87v53.29l-4.54-1.7,24.72-28.91h18.59l-22.79,25.4c2.19.61,4.06,1.53,5.61,2.78,1.55,1.25,3.08,3.12,4.59,5.61l15.76,24.49h-18.03l-11.9-19.16c-1.06-1.74-2.34-2.68-3.86-2.83-1.51-.15-2.99.61-4.42,2.27l-8.39,9.75,4.65-12.81v22.79h-15.87Z"/>
    <path class="cls-1" d="M762.1,507.14v-58.28h15.87v17.35l-1.13-.68c.98-4.08,2.3-7.35,3.97-9.81,1.66-2.46,3.7-4.21,6.12-5.27,2.42-1.06,5.22-1.59,8.39-1.59h3.74v15.31h-5.44c-3.33,0-6.16.72-8.5,2.15-2.34,1.44-4.12,3.51-5.33,6.24-1.21,2.72-1.81,6.05-1.81,9.98v24.6h-15.87Z"/>
  </g>
</svg>