<?xml version="1.0" encoding="UTF-8"?>
<svg id="Layer_1" data-name="Layer 1" xmlns="http://www.w3.org/2000/svg" viewBox="0 0 841.89 595.28">
  <defs>
    <style>
      .cls-1 {
        fill: #fff;
      }
    </style>
  </defs>
  <g>
    <path class="cls-1" d="M185.05,257.99v-18.67c-1.33,1.04-2.97,2.06-5,2.98-5.39,2.47-12.42,3.83-19.82,3.83-5.65,0-11.09-.79-15.73-2.27-1.45-.46-2.81-.98-4.09-1.56-2.07-.95-3.74-1.98-5.08-3.05v45.8c4.39.42,8.53,1.32,12.1,2.66.75.28,1.48.58,2.18.91,2.5,1.15,4.41,2.42,5.87,3.72v-9.75c0-1.07.17-11.09.79-12.64,1.12-2.85,3.76-6.19,9.61-8.87,5.22-2.4,12.01-3,19.18-3.07Z"/>
    <path class="cls-1" d="M151.84,296.62c-.1-.08-.21-.17-.32-.25-.11-.08-.22-.17-.33-.25-.12-.08-.23-.16-.35-.25-.81-.55-1.73-1.06-2.76-1.54-.12-.06-.25-.12-.37-.17-.12-.06-.25-.11-.38-.16-.25-.11-.52-.22-.79-.32-.43-.17-.87-.33-1.33-.48-.16-.05-.33-.11-.49-.16,0,0,0,0-.01,0-.21-.07-.42-.13-.64-.2-.11-.03-.22-.06-.33-.09-.11-.03-.22-.07-.33-.09-.22-.06-.45-.12-.67-.18-.23-.06-.46-.12-.69-.17-.23-.06-.46-.11-.7-.16-.47-.11-.95-.21-1.44-.3-.24-.05-.49-.09-.74-.13-.25-.05-.5-.09-.75-.13-.19-.03-.39-.06-.58-.09-.18-.03-.36-.05-.54-.08-.22-.03-.43-.06-.66-.08-.44-.06-.88-.11-1.33-.15-1.71-.17-3.49-.26-5.31-.27h-.23c-9.58,0-17.89,2.32-22.06,5.72-1.82,1.48-2.85,3.17-2.85,4.96,0,5.46,9.54,9.96,21.86,10.6,1,.05,2.01.08,3.04.08h.23c1.82,0,3.6-.1,5.31-.27,10.43-1.02,18.37-4.83,19.28-9.51.06-.29.09-.6.09-.9,0-1.79-1.03-3.48-2.85-4.96Z"/>
    <path class="cls-1" d="M135.32,317.99c-1.74.16-3.51.25-5.31.26h-.23c-2.7,0-5.36-.18-7.9-.53-4.42-.61-8.51-1.73-11.93-3.3-2.07-.95-3.74-1.98-5.08-3.05v52.91c-.01.15-.02.31-.02.46,0,1.87.97,3.63,2.7,5.18,4.12,3.7,12.5,6.24,22.18,6.24s18.06-2.54,22.17-6.24c1.73-1.55,2.7-3.32,2.7-5.18,0-.04,0-.08,0-.12h0v-38.56,2.91-17.53c-1.33,1.04-2.97,2.05-5,2.98-4.02,1.84-8.96,3.07-14.28,3.57Z"/>
    <path class="cls-1" d="M138.12,234.22c1.48,1.18,3.49,2.23,5.89,3.09,4.36,1.55,10.02,2.49,16.21,2.49,13.07,0,23.79-4.18,24.82-9.5.06-.28.08-.56.08-.85,0-1.74-1.03-3.37-2.85-4.81-4.17-3.29-12.48-5.54-22.06-5.54s-17.89,2.25-22.06,5.54c-1.82,1.43-2.85,3.07-2.85,4.81s1.01,3.34,2.8,4.77Z"/>
    <path class="cls-1" d="M129.78,284.79h.23v-42.02l-83.26,83.26,29.1,29.1,23.71-23.71v-29.9c0-1.36.27-3.25,1.38-5.31,1.37-2.54,4.01-5.3,9.01-7.6,5.39-2.47,12.43-3.83,19.83-3.83Z"/>
    <path class="cls-1" d="M200.13,265.97c-2.87-.85-6.18-1.46-9.77-1.74-1.51-.12-3.07-.18-4.66-.18-.21,0-.43,0-.64,0-10.38.11-19.18,2.88-22.67,6.73-1.03,1.14-1.6,2.38-1.6,3.67,0,.4.05.78.16,1.17,1.21,4.54,9.4,8.19,19.98,9.05,1.34.11,2.72.17,4.12.19.21,0,.43,0,.64,0,1.6,0,3.15-.06,4.66-.18,10.63-.84,18.87-4.5,20.09-9.06.1-.38.15-.77.15-1.17,0-1.29-.57-2.53-1.6-3.67-1.76-1.95-4.88-3.62-8.87-4.81Z"/>
    <path class="cls-1" d="M190.36,290.89c-1.53.12-3.09.18-4.66.18-.21,0-.43,0-.64,0-1.13-.01-2.25-.06-3.36-.13-5.91-.39-11.42-1.67-15.82-3.69-2.07-.95-3.74-1.98-5.08-3.05v80.03c-.01.15-.02.31-.02.46,0,1.87.97,3.63,2.7,5.18,4.11,3.7,12.5,6.24,22.17,6.24s18.06-2.54,22.17-6.24c1.73-1.55,2.7-3.31,2.7-5.18,0-.04,0-.08,0-.12h0v-80.31c-1.33,1.04-2.97,2.06-5,2.98-4.24,1.94-9.5,3.2-15.16,3.64Z"/>
    <path class="cls-1" d="M215.83,307.02l47.2-47.2-29.1-29.1-29.7,30.17c.44.18.87.36,1.3.56,5.85,2.68,8.48,6.03,9.6,8.87.39.98.6,1.9.7,2.72v33.99Z"/>
  </g>
  <g>
    <path class="cls-1" d="M234.26,369.63v-60.04h27.67c5.49,0,9.82,1.3,12.99,3.91,3.17,2.61,4.75,6.15,4.75,10.64,0,2.58-.55,4.88-1.64,6.9-1.09,2.02-2.69,3.7-4.79,5.05-2.1,1.35-4.67,2.35-7.69,3.03l-.59-1.01c3.59.11,6.67.81,9.25,2.1,2.58,1.29,4.58,3.03,6.01,5.21,1.43,2.19,2.14,4.71,2.14,7.57,0,3.42-.83,6.38-2.48,8.87-1.65,2.5-3.99,4.41-7.02,5.76-3.03,1.35-6.64,2.02-10.85,2.02h-27.75ZM246.7,334.14h12.78c1.51,0,2.86-.32,4.04-.97,1.18-.64,2.1-1.54,2.77-2.69.67-1.15,1.01-2.45,1.01-3.91,0-2.24-.69-3.99-2.06-5.26-1.37-1.26-3.24-1.89-5.59-1.89h-12.95v14.72ZM246.7,359.79h14.04c1.68,0,3.2-.35,4.54-1.05,1.35-.7,2.4-1.68,3.15-2.94.76-1.26,1.14-2.7,1.14-4.33s-.38-2.96-1.14-4.16c-.76-1.2-1.78-2.16-3.07-2.86-1.29-.7-2.78-1.05-4.46-1.05h-14.21v16.4Z"/>
    <path class="cls-1" d="M302.2,370.8c-4.15,0-7.44-1.15-9.88-3.45s-3.66-5.3-3.66-9c0-2.52.57-4.69,1.72-6.52,1.15-1.82,2.87-3.36,5.17-4.63,2.3-1.26,5.21-2.17,8.75-2.73l7.82-1.35c1.57-.22,2.65-.69,3.24-1.39.59-.7.88-1.58.88-2.65v-.08c0-1.18-.27-2.17-.8-2.99-.53-.81-1.29-1.44-2.27-1.89-.98-.45-2.2-.67-3.66-.67-2.19,0-3.94.37-5.26,1.09-1.32.73-2.14,1.93-2.48,3.62h-11.52c.45-2.97,1.56-5.41,3.32-7.32,1.77-1.91,4.04-3.32,6.81-4.25,2.78-.92,5.9-1.39,9.38-1.39,3.98,0,7.32.6,10.01,1.81,2.69,1.21,4.71,3,6.05,5.38,1.35,2.38,2.02,5.34,2.02,8.87v28.34h-11.1v-10.09l1.26,1.09c-1.01,2.52-2.31,4.51-3.91,5.97-1.6,1.46-3.39,2.52-5.38,3.2-1.99.67-4.16,1.01-6.52,1.01ZM306.24,362.14c1.57,0,2.97-.32,4.2-.97,1.23-.64,2.28-1.51,3.15-2.61.87-1.09,1.53-2.35,1.98-3.78.45-1.43.67-2.9.67-4.41v-5.3l1.93,2.19c-.73.67-1.47,1.15-2.23,1.43-.76.28-1.92.65-3.49,1.09l-5.97,1.26c-1.96.39-3.48,1.08-4.54,2.06-1.07.98-1.6,2.23-1.6,3.74,0,1.74.53,3.06,1.6,3.95,1.06.9,2.49,1.35,4.29,1.35Z"/>
    <path class="cls-1" d="M337.69,369.63v-60.04h11.86v60.04h-11.86Z"/>
    <path class="cls-1" d="M371.32,370.8c-4.15,0-7.44-1.15-9.88-3.45s-3.66-5.3-3.66-9c0-2.52.57-4.69,1.72-6.52,1.15-1.82,2.87-3.36,5.17-4.63,2.3-1.26,5.21-2.17,8.75-2.73l7.82-1.35c1.57-.22,2.65-.69,3.24-1.39.59-.7.88-1.58.88-2.65v-.08c0-1.18-.27-2.17-.8-2.99-.53-.81-1.29-1.44-2.27-1.89-.98-.45-2.2-.67-3.66-.67-2.19,0-3.94.37-5.26,1.09-1.32.73-2.14,1.93-2.48,3.62h-11.52c.45-2.97,1.56-5.41,3.32-7.32,1.77-1.91,4.04-3.32,6.81-4.25,2.78-.92,5.9-1.39,9.38-1.39,3.98,0,7.32.6,10.01,1.81,2.69,1.21,4.71,3,6.05,5.38,1.35,2.38,2.02,5.34,2.02,8.87v28.34h-11.1v-10.09l1.26,1.09c-1.01,2.52-2.31,4.51-3.91,5.97-1.6,1.46-3.39,2.52-5.38,3.2-1.99.67-4.16,1.01-6.52,1.01ZM375.36,362.14c1.57,0,2.97-.32,4.2-.97,1.23-.64,2.28-1.51,3.15-2.61.87-1.09,1.53-2.35,1.98-3.78.45-1.43.67-2.9.67-4.41v-5.3l1.93,2.19c-.73.67-1.47,1.15-2.23,1.43-.76.28-1.92.65-3.49,1.09l-5.97,1.26c-1.96.39-3.48,1.08-4.54,2.06-1.07.98-1.6,2.23-1.6,3.74,0,1.74.53,3.06,1.6,3.95,1.06.9,2.49,1.35,4.29,1.35Z"/>
    <path class="cls-1" d="M406.81,369.63v-43.22h11.86v10.34l-1.18-1.09c.9-2.41,2.13-4.39,3.7-5.93,1.57-1.54,3.35-2.68,5.34-3.41,1.99-.73,4.08-1.09,6.26-1.09,2.47,0,4.65.41,6.56,1.22,1.91.81,3.49,1.96,4.75,3.45,1.26,1.49,2.21,3.29,2.86,5.42.64,2.13.97,4.51.97,7.15v27.16h-11.86v-25.65c0-1.96-.34-3.63-1.01-5-.67-1.37-1.6-2.41-2.78-3.11-1.18-.7-2.55-1.05-4.12-1.05-1.91,0-3.57.46-5,1.39-1.43.92-2.54,2.19-3.32,3.78-.79,1.6-1.18,3.41-1.18,5.42v24.22h-11.86Z"/>
    <path class="cls-1" d="M477.11,370.8c-4.43,0-8.27-1-11.52-2.98-3.25-1.99-5.76-4.69-7.53-8.12-1.77-3.42-2.65-7.32-2.65-11.69,0-2.63.32-5.1.97-7.4.64-2.3,1.58-4.39,2.82-6.26,1.23-1.88,2.75-3.49,4.54-4.84,1.79-1.35,3.81-2.4,6.05-3.15,2.24-.76,4.71-1.13,7.4-1.13,3.76,0,7.05.62,9.88,1.85,2.83,1.23,5.11,2.99,6.85,5.26,1.74,2.27,2.8,5,3.2,8.2h-11.86c-.28-1.4-.8-2.58-1.56-3.53-.76-.95-1.71-1.67-2.86-2.14-1.15-.48-2.4-.71-3.74-.71s-2.45.21-3.49.63c-1.04.42-1.95,1.01-2.73,1.77-.79.76-1.43,1.71-1.93,2.86-.5,1.15-.9,2.44-1.18,3.87-.28,1.43-.42,2.98-.42,4.67,0,2.8.36,5.26,1.09,7.36.73,2.1,1.82,3.73,3.28,4.88,1.46,1.15,3.25,1.72,5.38,1.72s3.81-.49,5.21-1.47c1.4-.98,2.41-2.51,3.03-4.58h11.86c-.45,2.86-1.49,5.41-3.11,7.65-1.63,2.24-3.86,4.02-6.69,5.34-2.83,1.32-6.26,1.98-10.3,1.98Z"/>
    <path class="cls-1" d="M524.62,370.8c-4.37,0-8.2-1-11.48-2.98-3.28-1.99-5.82-4.69-7.61-8.12-1.79-3.42-2.69-7.32-2.69-11.69,0-2.63.34-5.1,1.01-7.4.67-2.3,1.63-4.39,2.86-6.26,1.23-1.88,2.73-3.5,4.5-4.88,1.77-1.37,3.78-2.42,6.05-3.15,2.27-.73,4.69-1.09,7.27-1.09,2.97,0,5.73.46,8.28,1.39,2.55.92,4.76,2.38,6.64,4.37,1.88,1.99,3.32,4.61,4.33,7.86,1.01,3.25,1.43,7.23,1.26,11.94h-34.23v-7.06h23.29c-.23-1.79-.6-3.33-1.14-4.62-.53-1.29-1.21-2.33-2.02-3.11-.81-.78-1.77-1.36-2.86-1.72-1.09-.36-2.28-.55-3.57-.55-1.46,0-2.76.21-3.91.63-1.15.42-2.13,1.05-2.94,1.89-.81.84-1.47,1.85-1.98,3.03-.5,1.18-.88,2.51-1.13,3.99-.25,1.49-.38,3.07-.38,4.75,0,2.86.35,5.37,1.05,7.53.7,2.16,1.82,3.83,3.36,5,1.54,1.18,3.6,1.77,6.18,1.77,2.13,0,3.94-.43,5.42-1.3,1.48-.87,2.51-2,3.07-3.41h11.69c-.39,2.24-1.42,4.36-3.07,6.35-1.65,1.99-3.94,3.63-6.85,4.92-2.92,1.29-6.39,1.93-10.43,1.93Z"/>
    <path class="cls-1" d="M560.19,369.63v-49.78h-18.58v-10.26h49.53v10.26h-18.58v49.78h-12.36Z"/>
    <path class="cls-1" d="M592.14,369.63v-43.22h11.77v12.87l-.84-.5c.73-3.03,1.71-5.45,2.94-7.27,1.23-1.82,2.75-3.12,4.54-3.91,1.79-.78,3.87-1.18,6.22-1.18h2.78v11.35h-4.04c-2.47,0-4.57.53-6.31,1.6-1.74,1.07-3.06,2.61-3.95,4.62-.9,2.02-1.35,4.49-1.35,7.4v18.25h-11.77Z"/>
    <path class="cls-1" d="M637.05,370.8c-4.15,0-7.44-1.15-9.88-3.45s-3.66-5.3-3.66-9c0-2.52.57-4.69,1.72-6.52,1.15-1.82,2.87-3.36,5.17-4.63,2.3-1.26,5.21-2.17,8.75-2.73l7.82-1.35c1.57-.22,2.65-.69,3.24-1.39.59-.7.88-1.58.88-2.65v-.08c0-1.18-.27-2.17-.8-2.99-.53-.81-1.29-1.44-2.27-1.89-.98-.45-2.2-.67-3.66-.67-2.19,0-3.94.37-5.26,1.09-1.32.73-2.14,1.93-2.48,3.62h-11.52c.45-2.97,1.56-5.41,3.32-7.32,1.77-1.91,4.04-3.32,6.81-4.25,2.77-.92,5.9-1.39,9.38-1.39,3.98,0,7.32.6,10.01,1.81,2.69,1.21,4.71,3,6.05,5.38,1.35,2.38,2.02,5.34,2.02,8.87v28.34h-11.1v-10.09l1.26,1.09c-1.01,2.52-2.31,4.51-3.91,5.97-1.6,1.46-3.39,2.52-5.38,3.2-1.99.67-4.16,1.01-6.52,1.01ZM641.08,362.14c1.57,0,2.97-.32,4.2-.97,1.23-.64,2.28-1.51,3.15-2.61s1.53-2.35,1.98-3.78c.45-1.43.67-2.9.67-4.41v-5.3l1.93,2.19c-.73.67-1.47,1.15-2.23,1.43-.76.28-1.92.65-3.49,1.09l-5.97,1.26c-1.96.39-3.48,1.08-4.54,2.06-1.07.98-1.6,2.23-1.6,3.74,0,1.74.53,3.06,1.6,3.95,1.06.9,2.49,1.35,4.29,1.35Z"/>
    <path class="cls-1" d="M691.37,370.8c-4.43,0-8.27-1-11.52-2.98-3.25-1.99-5.76-4.69-7.53-8.12-1.77-3.42-2.65-7.32-2.65-11.69,0-2.63.32-5.1.97-7.4.64-2.3,1.58-4.39,2.82-6.26,1.23-1.88,2.75-3.49,4.54-4.84,1.79-1.35,3.81-2.4,6.05-3.15,2.24-.76,4.71-1.13,7.4-1.13,3.76,0,7.05.62,9.88,1.85,2.83,1.23,5.11,2.99,6.85,5.26,1.74,2.27,2.8,5,3.2,8.2h-11.86c-.28-1.4-.8-2.58-1.56-3.53-.76-.95-1.71-1.67-2.86-2.14-1.15-.48-2.4-.71-3.74-.71s-2.45.21-3.49.63c-1.04.42-1.95,1.01-2.73,1.77-.79.76-1.43,1.71-1.93,2.86-.5,1.15-.9,2.44-1.18,3.87-.28,1.43-.42,2.98-.42,4.67,0,2.8.36,5.26,1.09,7.36.73,2.1,1.82,3.73,3.28,4.88,1.46,1.15,3.25,1.72,5.38,1.72s3.81-.49,5.21-1.47c1.4-.98,2.41-2.51,3.03-4.58h11.86c-.45,2.86-1.49,5.41-3.11,7.65-1.63,2.24-3.85,4.02-6.69,5.34-2.83,1.32-6.26,1.98-10.3,1.98Z"/>
    <path class="cls-1" d="M719.45,369.63v-60.04h11.77v39.52l-3.36-1.26,18.33-21.44h13.79l-16.9,18.84c1.63.45,3.01,1.13,4.16,2.06,1.15.92,2.28,2.31,3.41,4.16l11.69,18.16h-13.37l-8.83-14.21c-.79-1.29-1.74-1.99-2.86-2.1-1.12-.11-2.21.45-3.28,1.68l-6.22,7.23,3.45-9.5v16.9h-11.77Z"/>
    <path class="cls-1" d="M767.72,369.63v-43.22h11.77v12.87l-.84-.5c.73-3.03,1.71-5.45,2.94-7.27,1.23-1.82,2.75-3.12,4.54-3.91,1.79-.78,3.87-1.18,6.22-1.18h2.78v11.35h-4.04c-2.47,0-4.57.53-6.31,1.6-1.74,1.07-3.06,2.61-3.95,4.62-.9,2.02-1.35,4.49-1.35,7.4v18.25h-11.77Z"/>
  </g>
</svg>