<?xml version="1.0" encoding="UTF-8"?>
<svg id="Layer_1" data-name="Layer 1" xmlns="http://www.w3.org/2000/svg" viewBox="0 0 841.89 595.28">
  <defs>
    <style>
      .cls-1 {
        fill: #afc7ac;
      }

      .cls-2 {
        fill: #026b3a;
      }
    </style>
  </defs>
  <path class="cls-1" d="M523.32,163.06v-63.39c-4.5,3.55-10.08,6.98-16.97,10.13-18.28,8.38-42.17,12.99-67.29,12.99-19.17,0-37.63-2.68-53.41-7.69-4.91-1.55-9.55-3.32-13.88-5.3-7.04-3.23-12.7-6.74-17.25-10.35v155.46c14.91,1.41,28.95,4.49,41.08,9.04,2.56.95,5.03,1.98,7.41,3.08,8.49,3.9,14.98,8.2,19.93,12.61v-33.1c0-3.64.57-37.64,2.67-42.92,3.81-9.66,12.75-21.01,32.61-30.12,17.73-8.14,40.78-10.18,65.1-10.44Z"/>
  <path class="cls-1" d="M410.6,294.17c-.36-.29-.71-.57-1.09-.86-.37-.29-.75-.57-1.13-.84-.39-.29-.79-.56-1.19-.83-2.75-1.87-5.89-3.61-9.36-5.22-.42-.2-.84-.39-1.27-.58-.42-.19-.85-.37-1.3-.56-.86-.38-1.75-.74-2.67-1.09-1.45-.57-2.95-1.12-4.5-1.64-.55-.18-1.11-.37-1.68-.55-.01-.01-.03-.01-.04-.01-.71-.24-1.42-.45-2.16-.68-.37-.11-.74-.21-1.11-.32-.37-.11-.74-.23-1.12-.32-.75-.21-1.51-.42-2.28-.62-.78-.2-1.55-.39-2.33-.58-.79-.19-1.58-.38-2.38-.56-1.6-.36-3.23-.7-4.88-1.02-.83-.15-1.67-.31-2.5-.45-.84-.15-1.69-.3-2.54-.43-.66-.11-1.32-.2-1.98-.3-.6-.1-1.21-.18-1.83-.26-.74-.11-1.47-.2-2.22-.29-1.49-.19-2.99-.36-4.51-.5-5.81-.57-11.84-.88-18.03-.9h-.78c-32.52,0-60.74,7.87-74.88,19.4-6.18,5.03-9.66,10.77-9.66,16.84,0,18.52,32.39,33.79,74.22,35.98,3.38.17,6.83.26,10.32.26h.78c6.19-.02,12.22-.33,18.03-.9,35.41-3.45,62.37-16.41,65.45-32.3.19-1,.29-2.02.29-3.04,0-6.07-3.5-11.81-9.66-16.84Z"/>
  <path class="cls-1" d="M354.52,366.73c-5.9.56-11.92.85-18.03.88h-.78c-9.17,0-18.18-.62-26.81-1.81-15.01-2.07-28.88-5.87-40.49-11.19-7.03-3.23-12.69-6.74-17.24-10.35v179.61c-.05.52-.08,1.06-.08,1.58,0,6.33,3.31,12.32,9.17,17.59,13.97,12.57,42.44,21.18,75.27,21.18s61.3-8.61,75.26-21.18c5.86-5.28,9.17-11.26,9.17-17.59,0-.14,0-.28-.01-.42h.01v-130.91,9.87-59.51c-4.5,3.53-10.07,6.97-16.96,10.13-13.64,6.25-30.42,10.41-48.49,12.12Z"/>
  <path class="cls-1" d="M364.02,82.36c5.01,4.01,11.84,7.55,20.01,10.48,14.79,5.27,34.02,8.45,55.03,8.45,44.36,0,80.74-14.19,84.26-32.24.19-.96.28-1.91.28-2.88,0-5.9-3.5-11.45-9.67-16.32-14.15-11.18-42.37-18.8-74.87-18.8s-60.73,7.62-74.87,18.8c-6.18,4.87-9.67,10.42-9.67,16.32s3.43,11.34,9.5,16.19Z"/>
  <path class="cls-2" d="M335.72,254.03h.78V111.41L53.88,394.03l98.78,98.78,80.49-80.49v-101.5c0-4.61.92-11.05,4.69-18.01,4.64-8.61,13.63-18,30.57-25.78,18.28-8.38,42.18-12.99,67.3-12.99Z"/>
  <path class="cls-1" d="M574.52,190.15c-9.73-2.9-20.99-4.95-33.18-5.92-5.12-.42-10.41-.63-15.83-.63-.72,0-1.46,0-2.19.01-35.24.37-65.12,9.77-76.94,22.86-3.5,3.87-5.42,8.07-5.42,12.46,0,1.34.18,2.66.53,3.96,4.11,15.41,31.91,27.81,67.82,30.72,4.55.37,9.22.59,14,.64.72.01,1.46.01,2.19.01,5.42,0,10.7-.21,15.83-.63,36.08-2.85,64.06-15.29,68.19-30.74.34-1.3.52-2.62.52-3.96,0-4.39-1.92-8.6-5.42-12.46-5.98-6.61-16.55-12.28-30.12-16.32Z"/>
  <path class="cls-1" d="M541.34,281.17c-5.19.42-10.48.62-15.83.62-.72,0-1.46,0-2.19-.01-3.84-.04-7.65-.19-11.42-.46-20.06-1.33-38.76-5.67-53.69-12.52-7.04-3.23-12.7-6.74-17.25-10.35v266.06c-.05.52-.08,1.06-.08,1.58,0,6.34,3.31,12.32,9.18,17.59,13.96,12.57,42.42,21.18,75.26,21.18s61.3-8.61,75.26-21.18c5.87-5.28,9.18-11.25,9.18-17.59,0-.14,0-.28-.01-.42h.01v-267c-4.5,3.55-10.08,6.98-16.97,10.13-14.39,6.6-32.25,10.86-51.46,12.37Z"/>
  <path class="cls-2" d="M627.78,329.48l160.22-160.22-98.78-98.79-100.83,102.4c1.5.61,2.96,1.23,4.4,1.89,19.86,9.1,28.78,20.46,32.6,30.12,1.33,3.33,2.05,6.46,2.39,9.23v115.37Z"/>
</svg>