
<!-- Generator: visioncortex VTracer 0.6.4 -->
<svg version="1.1" xmlns="http://www.w3.org/2000/svg" viewBox="0 0 512 512" preserveAspectRatio="xMidYMid meet">
<path d="M0 0 C1.018 0.002 2.036 0.004 3.086 0.007 C17.707 0.056 32.006 0.362 46.375 3.312 C47.894 3.611 47.894 3.611 49.443 3.915 C95.285 13.082 139.738 34.105 173.645 66.699 C175.955 68.91 178.307 71.001 180.75 73.062 C183.993 75.872 186.785 78.908 189.551 82.184 C190.784 83.623 192.054 85.032 193.355 86.41 C223.714 118.649 242.966 161.606 252.125 204.5 C252.423 205.887 252.423 205.887 252.728 207.302 C256.019 223.509 256.75 239.443 256.688 255.938 C256.685 256.956 256.683 257.974 256.681 259.023 C256.631 273.645 256.326 287.944 253.375 302.312 C253.077 303.831 253.077 303.831 252.773 305.381 C243.606 351.223 222.582 395.676 189.988 429.582 C187.777 431.892 185.686 434.245 183.625 436.688 C180.816 439.93 177.78 442.722 174.504 445.488 C173.064 446.722 171.656 447.992 170.277 449.293 C138.038 479.652 95.081 498.903 52.188 508.062 C51.263 508.261 50.338 508.46 49.385 508.665 C33.178 511.957 17.245 512.688 0.75 512.625 C-0.777 512.622 -0.777 512.622 -2.336 512.618 C-16.957 512.569 -31.256 512.263 -45.625 509.312 C-46.638 509.114 -47.65 508.915 -48.693 508.71 C-94.535 499.543 -138.988 478.52 -172.895 445.926 C-175.205 443.715 -177.557 441.624 -180 439.562 C-183.243 436.753 -186.035 433.717 -188.801 430.441 C-190.034 429.002 -191.304 427.593 -192.605 426.215 C-222.964 393.976 -242.216 351.019 -251.375 308.125 C-251.574 307.2 -251.773 306.275 -251.978 305.323 C-255.269 289.116 -256 273.182 -255.938 256.688 C-255.935 255.669 -255.933 254.651 -255.931 253.602 C-255.881 238.98 -255.576 224.681 -252.625 210.312 C-252.426 209.3 -252.228 208.287 -252.023 207.244 C-242.856 161.402 -221.832 116.949 -189.238 83.043 C-187.027 80.733 -184.936 78.38 -182.875 75.938 C-180.066 72.695 -177.03 69.903 -173.754 67.137 C-172.314 65.903 -170.906 64.633 -169.527 63.332 C-137.288 32.973 -94.331 13.722 -51.438 4.562 C-50.513 4.364 -49.588 4.165 -48.635 3.96 C-32.428 0.668 -16.495 -0.063 0 0 Z " fill="#DE290F" transform="translate(255.625,-0.3125)"/>
<path d="M0 0 C0.66 0 1.32 0 2 0 C2.245 0.879 2.49 1.758 2.742 2.664 C6.014 14.173 9.783 25.506 13.609 36.84 C13.825 37.481 14.04 38.121 14.262 38.781 C14.856 40.542 15.452 42.302 16.048 44.062 C16.788 46.347 17.417 48.669 18 51 C36.48 51.33 54.96 51.66 74 52 C71.402 54.598 69.463 56.524 66.559 58.523 C65.901 58.98 65.244 59.438 64.567 59.908 C63.864 60.392 63.162 60.876 62.438 61.375 C55.784 66.011 49.209 70.742 42.688 75.562 C41.882 76.158 41.076 76.753 40.246 77.367 C36.822 79.9 33.406 82.442 30 85 C31.656 93.723 34.575 101.993 37.438 110.375 C40.554 119.522 43.629 128.623 46 138 C40.05 134.085 34.204 130.056 28.438 125.875 C27.67 125.323 26.903 124.771 26.113 124.203 C22.17 121.354 18.278 118.459 14.453 115.453 C13.735 114.894 13.016 114.335 12.276 113.758 C10.912 112.691 9.557 111.612 8.215 110.519 C4.777 107.704 4.777 107.704 0.541 107.202 C-2.124 108.039 -3.797 109.018 -6.012 110.703 C-6.761 111.265 -7.511 111.828 -8.283 112.407 C-9.076 113.015 -9.87 113.623 -10.688 114.25 C-12.381 115.523 -14.075 116.795 -15.77 118.066 C-16.633 118.718 -17.496 119.369 -18.385 120.04 C-22.515 123.136 -26.691 126.165 -30.875 129.188 C-31.988 129.997 -31.988 129.997 -33.124 130.823 C-36.666 133.385 -40.198 135.831 -44 138 C-42.269 130.99 -40.094 124.155 -37.793 117.316 C-37.503 116.448 -37.212 115.58 -36.913 114.685 C-35.696 111.05 -34.479 107.415 -33.239 103.787 C-32.326 101.114 -31.433 98.435 -30.543 95.754 C-30.258 94.934 -29.972 94.114 -29.679 93.27 C-29.428 92.505 -29.177 91.74 -28.919 90.951 C-28.692 90.283 -28.466 89.614 -28.233 88.926 C-27.924 86.375 -28.655 85.146 -30 83 C-31.474 81.616 -31.474 81.616 -33.246 80.477 C-33.91 80.02 -34.573 79.563 -35.257 79.092 C-36.336 78.366 -36.336 78.366 -37.438 77.625 C-38.975 76.567 -40.512 75.507 -42.047 74.445 C-43.256 73.61 -43.256 73.61 -44.49 72.759 C-49.594 69.182 -54.578 65.442 -59.578 61.721 C-62.857 59.288 -66.127 56.883 -69.551 54.656 C-70.763 53.836 -70.763 53.836 -72 53 C-72 52.67 -72 52.34 -72 52 C-53.52 51.67 -35.04 51.34 -16 51 C-14.02 44.4 -12.04 37.8 -10 31 C-8.606 26.719 -7.202 22.449 -5.75 18.188 C-3.704 12.155 -1.68 6.146 0 0 Z " fill="#FEDB00" transform="translate(127,52)"/>
<path d="M0 0 C0.33 0 0.66 0 1 0 C0.67 6.27 0.34 12.54 0 19 C1.65 19.33 3.3 19.66 5 20 C6.958 20.806 8.896 21.662 10.812 22.562 C12.276 23.245 12.276 23.245 13.77 23.941 C14.506 24.291 15.242 24.64 16 25 C16 25.33 16 25.66 16 26 C10.39 27.32 4.78 28.64 -1 30 C-1.66 35.61 -2.32 41.22 -3 47 C-6.152 43.848 -7.765 41.999 -9.75 38.25 C-10.178 37.451 -10.606 36.652 -11.047 35.828 C-11.361 35.225 -11.676 34.622 -12 34 C-18.013 34.579 -24.009 35.223 -30 36 C-27.025 31.308 -23.686 27.153 -20 23 C-21.427 19.21 -23.162 15.729 -25.125 12.188 C-25.664 11.212 -26.203 10.236 -26.758 9.23 C-27.168 8.494 -27.578 7.758 -28 7 C-23.93 7.883 -20.322 9.56 -16.535 11.258 C-13.438 12.165 -12.015 12.173 -9 11 C-6.484 8.498 -6.484 8.498 -4.25 5.438 C-2.847 3.614 -1.434 1.799 0 0 Z " fill="#FDD800" transform="translate(265,28)"/>
<path d="M0 0 C1.901 2.851 2.963 5.297 4.125 8.5 C4.478 9.459 4.831 10.418 5.195 11.406 C6 14 6 14 6 17 C11.94 17 17.88 17 24 17 C19.961 21.039 16.602 23.842 12 27 C12.997 31.87 14.103 36.392 16 41 C16 41.99 16 42.98 16 44 C12.377 42.674 9.365 41.057 6.188 38.875 C5.397 38.336 4.607 37.797 3.793 37.242 C3.201 36.832 2.61 36.422 2 36 C1.196 36.536 0.391 37.072 -0.438 37.625 C-1.244 38.163 -1.244 38.163 -2.066 38.711 C-2.704 39.136 -3.343 39.562 -4 40 C-4.793 40.529 -5.586 41.057 -6.402 41.602 C-7.218 42.146 -8.034 42.69 -8.875 43.25 C-10.047 44.031 -10.047 44.031 -11.242 44.828 C-12.112 45.408 -12.112 45.408 -13 46 C-12.357 43.374 -11.711 40.749 -11.062 38.125 C-10.88 37.379 -10.698 36.632 -10.51 35.863 C-9.113 30.227 -9.113 30.227 -8 28 C-8.715 27.743 -9.431 27.487 -10.168 27.223 C-13.187 25.919 -15.633 24.339 -18.312 22.438 C-19.196 21.817 -20.079 21.197 -20.988 20.559 C-21.652 20.044 -22.316 19.53 -23 19 C-23 18.67 -23 18.34 -23 18 C-17.06 18 -11.12 18 -5 18 C-3.726 12.825 -3.726 12.825 -2.457 7.649 C-1.111 2.222 -1.111 2.222 0 0 Z " fill="#FDD800" transform="translate(306,154)"/>
<path d="M0 0 C1.065 0.893 2.127 1.79 3.188 2.688 C3.828 3.229 4.469 3.77 5.129 4.328 C7 6 7 6 9.625 8.938 C10.409 9.618 11.192 10.299 12 11 C16.062 10.62 19.588 9.034 23.312 7.438 C24.381 6.982 25.45 6.527 26.551 6.059 C27.359 5.709 28.167 5.36 29 5 C27.317 9.437 25.146 13.465 22.828 17.598 C21.771 19.922 21.771 19.922 22.57 22.012 C24.375 24.522 26.408 26.596 28.625 28.75 C29.442 29.549 30.26 30.348 31.102 31.172 C31.728 31.775 32.355 32.378 33 33 C29.025 34.516 25.795 33.499 21.75 32.562 C20.487 32.275 19.223 31.988 17.922 31.691 C16.958 31.463 15.993 31.235 15 31 C14.724 31.889 14.448 32.779 14.164 33.695 C13.121 36.657 11.936 39.163 10.375 41.875 C9.929 42.656 9.483 43.437 9.023 44.242 C8.686 44.822 8.348 45.402 8 46 C5.185 43.185 5.372 40.783 4.875 36.875 C4.707 35.594 4.54 34.312 4.367 32.992 C4.246 32.005 4.125 31.017 4 30 C2.94 29.807 1.881 29.613 0.789 29.414 C-0.599 29.151 -1.987 28.888 -3.375 28.625 C-4.423 28.436 -4.423 28.436 -5.492 28.242 C-10.773 27.227 -10.773 27.227 -13 25 C-8.38 22.69 -3.76 20.38 1 18 C1.097 11.885 0.77 6.067 0 0 Z " fill="#FED900" transform="translate(296,80)"/>
<path d="M0 0 C0.33 0 0.66 0 1 0 C1 5.94 1 11.88 1 18 C6.28 19.98 11.56 21.96 17 24 C11.901 27.4 5.876 28.383 0 30 C-0.33 35.94 -0.66 41.88 -1 48 C-3.611 44.736 -5.975 41.652 -8.25 38.188 C-8.771 37.397 -9.292 36.607 -9.828 35.793 C-10.215 35.201 -10.602 34.61 -11 34 C-14.706 34.454 -18.109 35.033 -21.688 36.125 C-25 37 -25 37 -29 36 C-25.7 32.04 -22.4 28.08 -19 24 C-20.542 20.146 -21.81 17.607 -24.125 14.312 C-27 10.22 -27 10.22 -27 8 C-26.359 8.193 -25.719 8.387 -25.059 8.586 C-24.194 8.846 -23.329 9.107 -22.438 9.375 C-21.591 9.63 -20.744 9.885 -19.871 10.148 C-16.587 11.122 -13.295 12.063 -10 13 C-8.935 11.592 -8.935 11.592 -7.848 10.156 C-6.919 8.937 -5.991 7.719 -5.062 6.5 C-4.594 5.88 -4.125 5.26 -3.643 4.621 C-2.452 3.062 -1.229 1.529 0 0 Z " fill="#FED900" transform="translate(264,207)"/>
</svg>